<svg width="420" height="395" viewBox="0 0 420 395" fill="none" xmlns="http://www.w3.org/2000/svg">
<g clip-path="url(#clip0_32_192)">
<path d="M336.578 305.883C333.158 305.883 329.815 304.869 326.971 302.969C324.128 301.069 321.912 298.369 320.603 295.209C319.294 292.05 318.952 288.573 319.619 285.219C320.286 281.865 321.933 278.784 324.351 276.365C326.769 273.947 329.85 272.3 333.205 271.633C336.559 270.966 340.035 271.308 343.195 272.617C346.355 273.926 349.055 276.142 350.955 278.986C352.855 281.829 353.869 285.172 353.869 288.592C353.864 293.176 352.041 297.572 348.799 300.813C345.557 304.055 341.162 305.878 336.578 305.883Z" fill="#CCCCCC"/>
<path d="M344.558 287.927H337.243V279.614C337.243 279.438 337.173 279.268 337.048 279.144C336.923 279.019 336.754 278.949 336.578 278.949C336.401 278.949 336.232 279.019 336.108 279.144C335.983 279.268 335.913 279.438 335.913 279.614V287.927H328.597C328.421 287.927 328.252 287.997 328.127 288.122C328.002 288.247 327.932 288.416 327.932 288.592C327.932 288.769 328.002 288.938 328.127 289.062C328.252 289.187 328.421 289.257 328.597 289.257H335.913V297.57C335.913 297.747 335.983 297.916 336.108 298.041C336.232 298.165 336.401 298.235 336.578 298.235C336.754 298.235 336.923 298.165 337.048 298.041C337.173 297.916 337.243 297.747 337.243 297.57V289.257H344.558C344.735 289.257 344.904 289.187 345.029 289.062C345.153 288.938 345.223 288.769 345.223 288.592C345.223 288.416 345.153 288.247 345.029 288.122C344.904 287.997 344.735 287.927 344.558 287.927Z" fill="white"/>
<path d="M403.166 386.912L395.563 386.911L391.948 357.585L403.169 357.586L403.166 386.912Z" fill="#FFB8B8"/>
<path d="M390.133 384.738H404.795V393.971H380.9C380.9 392.758 381.139 391.558 381.603 390.438C382.067 389.317 382.747 388.3 383.604 387.442C384.462 386.585 385.479 385.905 386.6 385.441C387.72 384.977 388.92 384.738 390.133 384.738Z" fill="#2F2E41"/>
<path d="M372.907 386.912L365.304 386.911L361.688 357.585L372.909 357.586L372.907 386.912Z" fill="#FFB8B8"/>
<path d="M359.873 384.738H374.536V393.971H350.641C350.641 392.758 350.879 391.558 351.343 390.438C351.807 389.317 352.487 388.3 353.345 387.442C354.202 386.585 355.22 385.905 356.34 385.441C357.46 384.977 358.66 384.738 359.873 384.738Z" fill="#2F2E41"/>
<path d="M409.023 285.525C408.411 284.849 407.955 284.047 407.687 283.176C407.418 282.304 407.344 281.385 407.469 280.482C407.594 279.579 407.916 278.714 408.412 277.949C408.907 277.184 409.565 276.537 410.337 276.053L407.983 261.998L416.175 258.484L419.221 278.379C419.948 279.731 420.153 281.302 419.798 282.796C419.444 284.289 418.553 285.6 417.296 286.481C416.039 287.362 414.503 287.751 412.978 287.575C411.453 287.399 410.046 286.669 409.023 285.525Z" fill="#FFB8B8"/>
<path d="M344.887 278.884C345.602 278.318 346.185 277.603 346.594 276.788C347.002 275.973 347.228 275.078 347.253 274.167C347.279 273.256 347.104 272.35 346.742 271.513C346.379 270.677 345.838 269.93 345.156 269.325L349.8 255.852L342.301 251.033L336.01 270.151C335.07 271.365 334.608 272.881 334.711 274.412C334.814 275.944 335.476 277.384 336.57 278.46C337.664 279.537 339.115 280.174 340.648 280.252C342.181 280.33 343.689 279.843 344.887 278.884Z" fill="#FFB8B8"/>
<path d="M383.826 179.632C392.847 179.632 400.161 172.319 400.161 163.298C400.161 154.277 392.847 146.964 383.826 146.964C374.805 146.964 367.492 154.277 367.492 163.298C367.492 172.319 374.805 179.632 383.826 179.632Z" fill="#FFB8B8"/>
<path d="M344.382 268.804C344.102 268.804 343.823 268.765 343.554 268.687L338.793 267.32C338.033 267.1 337.39 266.589 337.005 265.897C336.621 265.206 336.525 264.39 336.739 263.628L346.565 228.938L360.266 195.303C361.629 191.959 364.475 189.766 367.695 189.58C369.165 189.508 370.625 189.864 371.897 190.605C373.169 191.346 374.199 192.44 374.863 193.755C375.6 195.161 376.004 196.718 376.045 198.306C376.086 199.894 375.763 201.47 375.1 202.913L359.527 236.97L347.146 266.953C346.92 267.5 346.537 267.969 346.045 268.298C345.553 268.628 344.974 268.804 344.382 268.804Z" fill="#3F3D56"/>
<path d="M393.044 176.996L383.968 177.157C383.023 177.176 382.086 176.972 381.234 176.562C380.382 176.153 379.638 175.548 379.062 174.798C378.487 174.048 378.095 173.173 377.92 172.244C377.744 171.315 377.79 170.358 378.052 169.45C378.246 168.793 378.392 168.124 378.488 167.446C378.59 166.707 378.61 165.959 378.548 165.216C378.49 164.471 378.181 163.769 377.672 163.223C377.163 162.677 376.483 162.32 375.744 162.211C375.006 162.103 374.252 162.248 373.607 162.624C372.962 162.999 372.463 163.583 372.193 164.279C370.667 164.301 367.416 163.803 365.89 163.825C362.65 155.519 369.711 144.65 377.312 140.567C385.06 136.405 395.119 140.639 398.089 149.314C402.211 149.388 405.56 153.453 406.092 158.03C406.623 162.607 404.74 167.386 401.86 170.893C398.979 174.401 395.198 176.958 393.044 176.996Z" fill="#2F2E41"/>
<path d="M363.211 384.174C362.476 384.17 361.767 383.896 361.221 383.404C360.674 382.913 360.326 382.238 360.244 381.507L356.876 268.292L399.298 271.312L399.331 271.585C408.917 351.831 405.64 379.61 405.606 379.881C405.583 380.291 405.475 380.693 405.289 381.06C405.103 381.427 404.844 381.751 404.527 382.014C404.211 382.276 403.843 382.47 403.448 382.584C403.053 382.698 402.638 382.729 402.231 382.676L392.856 382.9C392.145 382.82 391.487 382.488 391 381.963C390.513 381.439 390.23 380.758 390.203 380.043L381.443 298.043C381.389 297.83 381.262 297.643 381.083 297.514C380.905 297.386 380.687 297.324 380.468 297.341C380.243 297.34 380.024 297.418 379.849 297.56C379.675 297.703 379.555 297.902 379.511 298.123L376.127 380.392C376.163 381.156 375.904 381.904 375.404 382.483C374.903 383.061 374.2 383.424 373.439 383.499L363.508 384.159C363.41 384.169 363.31 384.174 363.211 384.174Z" fill="#2F2E41"/>
<path d="M380.814 281.82C380.56 281.82 380.307 281.816 380.052 281.808C367.854 281.441 358.311 272.212 355.677 269.392C355.341 269.032 355.1 268.595 354.974 268.12C354.849 267.644 354.843 267.145 354.957 266.667L361.995 236.897L360.127 211.015C359.834 207.423 360.305 203.809 361.51 200.413C362.714 197.016 364.624 193.913 367.114 191.307C369.189 189.115 371.711 187.395 374.51 186.263C377.308 185.131 380.317 184.613 383.332 184.746C395.207 185.313 404.575 195.927 404.66 208.909C404.791 229.017 404.199 230.398 404.005 230.852C398.078 244.683 401.315 264.097 402.448 269.719C402.549 270.22 402.521 270.739 402.365 271.226C402.21 271.714 401.932 272.153 401.559 272.503C395.041 278.688 388.065 281.819 380.814 281.82Z" fill="#3F3D56"/>
<path d="M411.449 274.252C410.772 274.252 410.115 274.022 409.586 273.599C409.057 273.177 408.687 272.588 408.536 271.928L401.276 240.3L391.546 204.15C391.13 202.617 391.071 201.01 391.374 199.451C391.677 197.892 392.333 196.423 393.293 195.157C394.164 193.971 395.361 193.063 396.738 192.542C398.115 192.022 399.613 191.911 401.052 192.224C404.196 192.94 406.641 195.573 407.433 199.096L415.383 234.496L419.349 270.369C419.434 271.156 419.205 271.944 418.711 272.563C418.217 273.181 417.499 273.58 416.713 273.671L411.792 274.232C411.678 274.245 411.564 274.252 411.449 274.252Z" fill="#3F3D56"/>
<path d="M20.5046 277.663C21.3661 277.072 22.0876 276.3 22.6183 275.401C23.149 274.501 23.4761 273.496 23.5764 272.456C23.6767 271.417 23.5478 270.368 23.1988 269.383C22.8499 268.399 22.2893 267.503 21.5566 266.758L24.328 204.897L10.2186 206.481L11.0383 266.99C9.86943 268.304 9.22306 270.001 9.22168 271.759C9.2203 273.518 9.86402 275.215 11.0309 276.531C12.1977 277.847 13.8066 278.689 15.5527 278.897C17.2987 279.106 19.0607 278.667 20.5046 277.663Z" fill="#FFB8B8"/>
<path d="M46.2434 382.381L54.2739 383.793L62.2106 353.49L51.6888 351.407L46.2434 382.381Z" fill="#FFB8B8"/>
<path d="M68.45 393.972L43.2121 389.535L44.9264 379.784L60.4132 382.506C61.6937 382.731 62.9174 383.207 64.0143 383.905C65.1112 384.603 66.0598 385.51 66.8061 386.575C67.5524 387.639 68.0817 388.84 68.3637 390.11C68.6458 391.379 68.6751 392.691 68.45 393.972Z" fill="#2F2E41"/>
<path d="M24.2025 386.4H32.356L36.2346 354.951L24.2012 354.952L24.2025 386.4Z" fill="#FFB8B8"/>
<path d="M48.0806 393.971L22.4557 393.972L22.4553 384.071L38.1796 384.071C40.8054 384.07 43.3237 385.113 45.1805 386.97C47.0372 388.827 48.0804 391.345 48.0806 393.971Z" fill="#2F2E41"/>
<path d="M58.8867 377.789C58.7594 377.789 58.6323 377.781 58.5059 377.766L48.9093 376.976C48.4724 376.925 48.0504 376.785 47.6691 376.566C47.2879 376.346 46.9552 376.052 46.6913 375.7C46.4274 375.348 46.2378 374.946 46.1341 374.518C46.0303 374.091 46.0146 373.646 46.0878 373.213L54.9494 323.546L48.9616 291.973C48.9128 291.717 48.7728 291.487 48.5676 291.325C48.3624 291.164 48.1057 291.082 47.8449 291.095C47.5841 291.108 47.3368 291.215 47.1486 291.396C46.9604 291.577 46.844 291.82 46.8208 292.08L39.3352 376.293C39.2529 377.139 38.8457 377.919 38.1993 378.469C37.5529 379.02 36.7179 379.298 35.8705 379.244L26.8293 378.908C26.037 378.852 25.2926 378.507 24.7368 377.94C24.181 377.372 23.8521 376.621 23.8123 375.828L23.2046 274.895L70.078 269.036L73.3525 319.607L73.3395 319.66L62.0398 375.308C61.8677 376.015 61.4634 376.643 60.8917 377.093C60.3201 377.543 59.614 377.788 58.8867 377.789Z" fill="#2F2E41"/>
<path d="M38.6588 164.81C47.6799 164.81 54.9931 157.497 54.9931 148.476C54.9931 139.454 47.6799 132.141 38.6588 132.141C29.6376 132.141 22.3245 139.454 22.3245 148.476C22.3245 157.497 29.6376 164.81 38.6588 164.81Z" fill="#FFB8B8"/>
<path d="M54.0498 282.272C51.4951 282.287 48.9895 281.57 46.8294 280.206C38.917 275.261 29.9301 277.226 25.2772 278.838C24.8155 279 24.3232 279.055 23.8372 279C23.3511 278.944 22.8839 278.78 22.4704 278.518C22.0616 278.262 21.7162 277.916 21.46 277.507C21.2038 277.098 21.0435 276.636 20.991 276.156L12.5299 200.59C11.112 187.929 18.7387 176.025 30.6643 172.286C31.1123 172.145 31.5679 172.012 32.0311 171.886C35.7422 170.88 39.6287 170.699 43.4172 171.356C47.2057 172.014 50.8041 173.494 53.9591 175.692C57.1728 177.914 59.8605 180.813 61.833 184.186C63.8054 187.558 65.0148 191.322 65.3759 195.213L72.4988 271.286C72.5473 271.778 72.4809 272.275 72.3046 272.738C72.1284 273.2 71.8472 273.615 71.4832 273.951C68.9863 276.261 61.7391 282.271 54.0498 282.272Z" fill="#2D84FF"/>
<path d="M28.2848 216.795L9.19561 214.696C8.65247 214.636 8.12858 214.46 7.65963 214.179C7.19068 213.899 6.78769 213.521 6.47809 213.071C6.1685 212.62 5.95957 212.109 5.86555 211.57C5.77153 211.032 5.79462 210.48 5.93326 209.951L10.7921 191.432C11.1134 188.655 12.5229 186.119 14.7114 184.379C16.9 182.64 19.689 181.839 22.467 182.152C25.2451 182.466 27.7853 183.869 29.5309 186.052C31.2764 188.236 32.0848 191.023 31.7787 193.802L32.5 212.872C32.5205 213.418 32.4231 213.962 32.2143 214.467C32.0056 214.972 31.6905 215.426 31.2905 215.799C30.8904 216.171 30.4149 216.453 29.8962 216.624C29.3775 216.796 28.8279 216.854 28.2848 216.795Z" fill="#2D84FF"/>
<path d="M72.4223 275.014C73.2063 274.324 73.8295 273.47 74.248 272.513C74.6664 271.556 74.8699 270.519 74.8442 269.475C74.8185 268.431 74.5641 267.405 74.0991 266.47C73.634 265.535 72.9696 264.713 72.1525 264.062L67.4487 202.318L53.6233 205.43L61.7388 265.56C60.7367 267.005 60.2996 268.767 60.5101 270.513C60.7207 272.259 61.5643 273.867 62.8812 275.032C64.1981 276.197 65.8967 276.839 67.6552 276.836C69.4137 276.833 71.1098 276.184 72.4223 275.014Z" fill="#FFB8B8"/>
<path d="M48.3229 212.913C47.9228 212.541 47.6075 212.087 47.3988 211.582C47.1901 211.077 47.0928 210.533 47.1136 209.987L47.8349 190.917C47.5288 188.138 48.3372 185.351 50.0827 183.167C51.8283 180.983 54.3685 179.581 57.1465 179.267C59.9246 178.953 62.7136 179.754 64.9021 181.494C67.0907 183.233 68.5002 185.77 68.8215 188.547L73.6803 207.066C73.819 207.595 73.8421 208.147 73.748 208.685C73.654 209.223 73.4451 209.735 73.1355 210.185C72.8259 210.635 72.4229 211.014 71.954 211.294C71.485 211.575 70.9611 211.751 70.418 211.81L51.3288 213.909C50.7856 213.969 50.2359 213.911 49.7171 213.739C49.1984 213.568 48.7228 213.286 48.3229 212.913Z" fill="#2D84FF"/>
<path d="M37.6872 165.425C37.3968 165.425 37.1075 165.391 36.8248 165.325L36.7419 165.305C22.3805 163.107 19.2067 154.789 18.51 151.315C17.7889 147.718 18.61 144.247 20.4654 142.898C19.4538 139.704 19.6162 136.872 20.9491 134.477C23.2736 130.301 28.3185 128.889 28.9951 128.716C33.024 125.744 37.8445 127.728 38.7216 128.13C46.515 125.247 49.4937 127.647 50.0325 128.183C53.5162 128.808 55.6396 130.154 56.3446 132.183C57.6687 135.995 53.4813 140.736 53.3023 140.936L53.2095 141.039L46.9712 141.336C46.3793 141.365 45.7999 141.517 45.2706 141.784C44.7413 142.05 44.274 142.425 43.8989 142.884C43.5239 143.343 43.2494 143.875 43.0934 144.447C42.9374 145.019 42.9034 145.617 42.9934 146.203C43.1623 146.958 43.3756 147.703 43.6322 148.434C44.6976 151.764 45.4958 154.608 44.4662 155.689C44.233 155.899 43.9455 156.038 43.6368 156.091C43.328 156.145 43.0104 156.11 42.7203 155.992C41.745 155.731 41.0827 155.786 40.7528 156.155C40.2405 156.726 40.3969 158.173 41.1931 160.228C41.4429 160.878 41.5102 161.584 41.3876 162.27C41.265 162.955 40.9572 163.594 40.4975 164.117C40.1515 164.525 39.721 164.854 39.2358 165.079C38.7507 165.305 38.2223 165.423 37.6872 165.425Z" fill="#2F2E41"/>
<path d="M93.772 395H0.665049C0.488667 395 0.319499 394.93 0.194778 394.805C0.0700568 394.681 0 394.511 0 394.335C0 394.159 0.0700568 393.989 0.194778 393.865C0.319499 393.74 0.488667 393.67 0.665049 393.67H93.772C93.9483 393.67 94.1175 393.74 94.2422 393.865C94.3669 393.989 94.437 394.159 94.437 394.335C94.437 394.511 94.3669 394.681 94.2422 394.805C94.1175 394.93 93.9483 395 93.772 395Z" fill="#CCCCCC"/>
<path d="M418.316 395H325.209C325.033 395 324.864 394.93 324.739 394.805C324.614 394.681 324.544 394.511 324.544 394.335C324.544 394.159 324.614 393.989 324.739 393.865C324.864 393.74 325.033 393.67 325.209 393.67H418.316C418.493 393.67 418.662 393.74 418.786 393.865C418.911 393.989 418.981 394.159 418.981 394.335C418.981 394.511 418.911 394.681 418.786 394.805C418.662 394.93 418.493 395 418.316 395Z" fill="#CCCCCC"/>
<path d="M285.115 281.981H124.173C118.002 281.974 112.086 279.519 107.722 275.156C103.358 270.792 100.903 264.875 100.896 258.704V23.2767C100.903 17.1055 103.358 11.189 107.722 6.82533C112.086 2.46162 118.002 0.00700386 124.173 0H285.115C291.286 0.00700386 297.203 2.46162 301.567 6.82533C305.93 11.189 308.385 17.1055 308.392 23.2767V258.704C308.385 264.875 305.93 270.792 301.567 275.156C297.203 279.519 291.286 281.974 285.115 281.981Z" fill="white"/>
<path d="M259.843 186.898H149.445C138.168 186.844 138.121 169.666 149.446 169.607L259.843 169.607C271.113 169.66 271.174 186.839 259.843 186.898Z" fill="#CCCCCC"/>
<path d="M259.843 48.529H149.445C138.168 48.4746 138.121 31.2965 149.446 31.2377L259.843 31.2377C271.113 31.2904 271.174 48.4699 259.843 48.529Z" fill="#CCCCCC"/>
<path d="M259.843 218.821H149.445C138.168 218.767 138.121 201.588 149.446 201.53L259.843 201.53C271.113 201.582 271.174 218.762 259.843 218.821Z" fill="#CCCCCC"/>
<path d="M259.843 250.743H149.445C138.168 250.689 138.121 233.511 149.446 233.452L259.843 233.452C271.113 233.505 271.174 250.684 259.843 250.743Z" fill="#CCCCCC"/>
<path d="M257.848 148.858H151.44C148.531 148.854 145.742 147.697 143.684 145.64C141.627 143.583 140.47 140.794 140.467 137.884V78.2961C140.47 75.3868 141.627 72.5976 143.684 70.5404C145.742 68.4832 148.531 67.326 151.44 67.3228H257.848C260.757 67.326 263.546 68.4832 265.604 70.5404C267.661 72.5976 268.818 75.3868 268.821 78.2961V137.884C268.818 140.794 267.661 143.583 265.604 145.64C263.546 147.697 260.757 148.854 257.848 148.858Z" fill="#2D84FF"/>
<path d="M285.115 281.981H124.173C118.002 281.974 112.086 279.519 107.722 275.156C103.358 270.792 100.903 264.875 100.896 258.704V23.2767C100.903 17.1055 103.358 11.189 107.722 6.82533C112.086 2.46162 118.002 0.00700386 124.173 0H285.115C291.286 0.00700386 297.203 2.46162 301.567 6.82533C305.93 11.189 308.385 17.1055 308.392 23.2767V258.704C308.385 264.875 305.93 270.792 301.567 275.156C297.203 279.519 291.286 281.974 285.115 281.981ZM124.173 3.9903C119.06 3.99608 114.158 6.02989 110.542 9.64555C106.926 13.2612 104.893 18.1634 104.887 23.2767V258.704C104.893 263.818 106.926 268.72 110.542 272.335C114.158 275.951 119.06 277.985 124.173 277.991H285.115C290.228 277.985 295.131 275.951 298.746 272.335C302.362 268.72 304.396 263.818 304.402 258.704V23.2767C304.396 18.1634 302.362 13.2612 298.746 9.64553C295.131 6.02987 290.228 3.99606 285.115 3.9903H124.173Z" fill="#E6E6E6"/>
<rect x="153" y="81" width="38" height="7" rx="3.5" fill="white"/>
<rect x="200" y="81" width="55" height="7" rx="3.5" fill="white"/>
<rect x="153" y="109" width="38" height="7" rx="3.5" fill="white"/>
<rect x="153" y="95" width="75" height="7" rx="3.5" fill="white"/>
<rect x="235" y="95" width="20" height="7" rx="3.5" fill="white"/>
<rect x="198" y="109" width="20" height="7" rx="3.5" fill="white"/>
<rect x="225" y="109" width="30" height="7" rx="3.5" fill="white"/>
</g>
<defs>
<clipPath id="clip0_32_192">
<rect width="419.967" height="395" fill="white"/>
</clipPath>
</defs>
</svg>
