<svg width="66" height="66" viewBox="0 0 66 66" fill="none" xmlns="http://www.w3.org/2000/svg">
<path d="M11.6152 0.989233H53.5943C55.1063 0.987771 56.6037 1.29213 58.0008 1.8849C59.398 2.47767 60.6675 3.3472 61.7366 4.44374C62.8057 5.54028 63.6535 6.84229 64.2315 8.27527C64.8094 9.70824 65.1062 11.244 65.1047 12.7948V54.1837C65.1062 55.7344 64.8094 57.2702 64.2315 58.7032C63.6535 60.1362 62.8057 61.4382 61.7366 62.5347C60.6675 63.6312 59.398 64.5008 58.0008 65.0936C56.6037 65.6863 55.1063 65.9907 53.5943 65.9892H11.6152C10.1032 65.9907 8.60578 65.6863 7.20863 65.0936C5.81147 64.5008 4.54201 63.6312 3.47289 62.5347C2.40376 61.4382 1.55596 60.1362 0.978017 58.7032C0.400069 57.2702 0.103316 55.7344 0.104741 54.1837V12.7948C0.103316 11.244 0.400069 9.70824 0.978017 8.27527C1.55596 6.84229 2.40376 5.54028 3.47289 4.44374C4.54201 3.3472 5.81147 2.47767 7.20863 1.8849C8.60578 1.29213 10.1032 0.987771 11.6152 0.989233Z" fill="#2965F1"/>
<path d="M16.0161 27.7847L16.6557 34.9218H32.6271V27.7847H16.0161ZM14.7307 13.3392L15.3795 20.4763H32.6271V13.3392H14.7307ZM32.6271 46.3204L32.5958 46.3287L24.6473 44.1825L24.1391 38.4904H16.9746L17.9744 49.6966L32.5942 53.7549L32.6271 53.746V46.3204Z" fill="#EBEBEB"/>
<path d="M49.1922 27.7847L50.4805 13.3392H32.6023V20.4763H42.659L42.0096 27.7847H32.6023V34.9218H41.3908L40.5621 44.178L32.6021 46.3265V53.7516L47.2335 49.6966L47.3407 48.4908L49.0181 29.7012L49.1922 27.7847Z" fill="white"/>
</svg>
