<svg width="66" height="65" viewBox="0 0 66 65" fill="none" xmlns="http://www.w3.org/2000/svg">
<path d="M11.7443 5.2391e-06H53.7235C55.2354 -0.00145634 56.7328 0.302906 58.13 0.895673C59.5271 1.48844 60.7966 2.35797 61.8657 3.45451C62.9349 4.55105 63.7827 5.85307 64.3606 7.28604C64.9386 8.71902 65.2353 10.2548 65.2339 11.8056V53.1944C65.2353 54.7452 64.9386 56.281 64.3606 57.714C63.7827 59.1469 62.9349 60.4489 61.8657 61.5455C60.7966 62.642 59.5271 63.5116 58.13 64.1043C56.7328 64.6971 55.2354 65.0015 53.7235 65H11.7443C10.2323 65.0015 8.73493 64.6971 7.33778 64.1043C5.94063 63.5116 4.67116 62.642 3.60204 61.5455C2.53291 60.4489 1.68512 59.1469 1.10717 57.714C0.52922 56.281 0.232467 54.7452 0.233892 53.1944V11.8056C0.232467 10.2548 0.52922 8.71902 1.10717 7.28604C1.68512 5.85307 2.53291 4.55105 3.60204 3.45451C4.67116 2.35797 5.94063 1.48844 7.33778 0.895673C8.73493 0.302906 10.2323 -0.00145634 11.7443 5.2391e-06Z" fill="#F0F0F0"/>
<path d="M56.1941 30.3287L34.9081 9.04443C33.6834 7.81852 31.6954 7.81852 30.4691 9.04443L26.0493 13.4648L31.6557 19.0714C32.959 18.6314 34.4529 18.9264 35.4913 19.9651C36.5352 21.0103 36.8281 22.517 36.377 23.8247L41.7806 29.2285C43.0878 28.778 44.5962 29.069 45.64 30.1148C47.0994 31.5738 47.0994 33.938 45.64 35.3975C44.1804 36.8574 41.8163 36.8574 40.3559 35.3975C39.2585 34.2992 38.9871 32.6868 39.5429 31.3347L34.5035 26.2951L34.5031 39.5568C34.8589 39.7329 35.1946 39.968 35.4911 40.2632C36.9501 41.7221 36.9501 44.0859 35.4911 45.5472C34.0317 47.006 31.6665 47.006 30.2087 45.5472C28.7495 44.086 28.7495 41.7222 30.2087 40.2632C30.5693 39.9032 30.9866 39.6307 31.4318 39.4481V26.0632C30.9863 25.8813 30.5696 25.6109 30.2084 25.248C29.1031 24.1436 28.8369 22.5213 29.4038 21.164L23.877 15.6361L9.28296 30.2303C8.05672 31.4572 8.05672 33.4453 9.28296 34.6713L30.5677 55.9556C31.7931 57.1815 33.7805 57.1815 35.0076 55.9556L56.1939 34.7718C57.4198 33.5453 57.4198 31.5566 56.1939 30.3305" fill="#F05133"/>
</svg>
