<svg width="565" height="411" viewBox="0 0 565 411" fill="none" xmlns="http://www.w3.org/2000/svg">
<g clip-path="url(#clip0_32_81)">
<path d="M328.576 72.3237C339.148 72.3237 347.718 63.7535 347.718 53.1816C347.718 42.6097 339.148 34.0396 328.576 34.0396C318.004 34.0396 309.434 42.6097 309.434 53.1816C309.434 63.7535 318.004 72.3237 328.576 72.3237Z" fill="#F2F2F2"/>
<path d="M477.067 356.414C505.519 334.742 519.109 298.325 510.601 263.586C510.39 262.723 510.166 261.862 509.932 261.003C504.291 240.382 490.337 220.784 470 214.195C452.923 208.662 434.284 212.917 416.468 210.717C381.497 206.398 354.384 178.101 335.306 148.475C316.229 118.848 301.567 85.6854 276.217 61.2095C234.432 20.865 166.27 12.1789 114.463 38.4401C62.6557 64.7013 29.655 122.964 31.0624 181.03C32.4698 239.096 66.9411 294.612 117.002 324.066C135.392 334.886 156.662 342.552 177.831 339.87C196.198 337.542 212.887 327.673 231.168 324.743C259.91 320.136 288.468 333.131 313.328 348.275C338.187 363.418 362.2 381.367 390.449 388.388C417.879 395.204 451.862 375.611 477.067 356.414Z" fill="#F2F2F2"/>
<path d="M436.187 39.6595C435.563 39.2437 434.933 38.8494 434.309 38.4479C416.279 26.917 396.954 17.5493 376.734 10.5386L372.045 75.2183H342.322V1.09687C340.451 0.709741 338.565 0.344117 336.68 0V75.2183H301.358C281.912 75.2183 263.264 67.4937 249.514 53.7438C235.764 39.994 228.039 21.3451 228.039 1.8999C226.147 2.30854 224.268 2.74579 222.39 3.21178V75.2183H193.62L189.154 13.5425C168.374 21.5118 148.647 31.992 130.41 44.7496C130.095 44.9647 129.78 45.1869 129.471 45.402C127.887 46.5132 126.324 47.6459 124.768 48.793V295.546H209.557L208.059 274.792L199.815 160.839H365.844L357.599 274.792L356.101 295.546H439.951V42.1544C438.704 41.3084 437.449 40.4768 436.187 39.6595ZM222.39 142.02H198.452L194.029 80.8675H222.39V142.02ZM336.68 142.02H296.476V140.808C296.476 140.226 296.361 139.649 296.138 139.111C295.915 138.573 295.588 138.085 295.175 137.673C294.763 137.262 294.274 136.935 293.736 136.713C293.197 136.491 292.62 136.377 292.038 136.378H274.56C273.978 136.378 273.402 136.492 272.864 136.715C272.326 136.937 271.838 137.264 271.426 137.675C271.015 138.087 270.689 138.575 270.466 139.113C270.243 139.65 270.129 140.227 270.129 140.808V142.02H228.039V80.8675H336.68V142.02ZM342.322 142.02V80.8675H371.637L367.213 142.02H342.322Z" fill="#3F3D56"/>
<path d="M0 311.348C6.22799 318.727 12.9643 325.662 20.1595 332.102L543.92 332.819C551.115 326.379 557.852 319.444 564.08 312.065L0 311.348Z" fill="#3F3D56"/>
<path d="M355.179 244.891V306.333C355.18 307.116 355.491 307.866 356.045 308.42C356.598 308.974 357.349 309.285 358.132 309.286H449.183C449.966 309.285 450.717 308.974 451.27 308.42C451.824 307.866 452.135 307.116 452.136 306.333V244.891C452.134 244.108 451.822 243.359 451.269 242.806C450.715 242.253 449.965 241.942 449.183 241.941H358.132C357.35 241.942 356.6 242.253 356.046 242.806C355.493 243.359 355.181 244.108 355.179 244.891Z" fill="#3F3D56"/>
<path d="M357.315 245.655V305.575C357.316 305.993 357.482 306.394 357.778 306.69C358.074 306.986 358.475 307.152 358.893 307.153H448.425C448.843 307.152 449.244 306.986 449.54 306.69C449.836 306.394 450.002 305.993 450.003 305.575V245.655C450.003 245.236 449.837 244.834 449.541 244.538C449.245 244.241 448.844 244.074 448.425 244.073H358.893C358.474 244.074 358.073 244.241 357.777 244.538C357.481 244.834 357.315 245.236 357.315 245.655Z" fill="#2D84FF"/>
<path d="M353.275 318.316C353.442 318.525 353.654 318.693 353.895 318.809C354.136 318.924 354.4 318.984 354.668 318.982H452.162C452.429 318.982 452.692 318.922 452.933 318.807C453.173 318.692 453.385 318.525 453.553 318.318C453.721 318.111 453.841 317.869 453.904 317.61C453.966 317.351 453.97 317.081 453.916 316.82L452.402 309.632C452.34 309.338 452.205 309.066 452.009 308.838C451.814 308.61 451.565 308.435 451.285 308.328C451.082 308.249 450.867 308.208 450.649 308.208H356.175C355.958 308.208 355.742 308.249 355.539 308.328C355.259 308.435 355.01 308.61 354.815 308.838C354.62 309.066 354.484 309.338 354.422 309.632L352.908 316.82C352.855 317.081 352.859 317.351 352.923 317.609C352.986 317.868 353.106 318.109 353.275 318.316Z" fill="#2F2E41"/>
<path d="M447.304 311.304H449.606C449.8 311.304 449.956 311.148 449.956 310.954V309.853C449.956 309.659 449.8 309.503 449.606 309.503H447.304C447.11 309.503 446.954 309.659 446.954 309.853V310.954C446.954 311.148 447.11 311.304 447.304 311.304Z" fill="#3F3D56"/>
<path d="M441.298 311.304H443.601C443.794 311.304 443.951 311.148 443.951 310.954V309.853C443.951 309.659 443.794 309.503 443.601 309.503H441.298C441.105 309.503 440.948 309.659 440.948 309.853V310.954C440.948 311.148 441.105 311.304 441.298 311.304Z" fill="#3F3D56"/>
<path d="M435.293 311.304H437.595C437.789 311.304 437.945 311.148 437.945 310.954V309.853C437.945 309.659 437.789 309.503 437.595 309.503H435.293C435.099 309.503 434.943 309.659 434.943 309.853V310.954C434.943 311.148 435.099 311.304 435.293 311.304Z" fill="#3F3D56"/>
<path d="M429.287 311.304H431.59C431.783 311.304 431.94 311.148 431.94 310.954V309.853C431.94 309.659 431.783 309.503 431.59 309.503H429.287C429.094 309.503 428.937 309.659 428.937 309.853V310.954C428.937 311.148 429.094 311.304 429.287 311.304Z" fill="#3F3D56"/>
<path d="M423.281 311.304H425.584C425.777 311.304 425.934 311.148 425.934 310.954V309.853C425.934 309.659 425.777 309.503 425.584 309.503H423.281C423.088 309.503 422.931 309.659 422.931 309.853V310.954C422.931 311.148 423.088 311.304 423.281 311.304Z" fill="#3F3D56"/>
<path d="M417.276 311.304H419.579C419.772 311.304 419.929 311.148 419.929 310.954V309.853C419.929 309.659 419.772 309.503 419.579 309.503H417.276C417.083 309.503 416.926 309.659 416.926 309.853V310.954C416.926 311.148 417.083 311.304 417.276 311.304Z" fill="#3F3D56"/>
<path d="M411.27 311.304H413.573C413.766 311.304 413.923 311.148 413.923 310.954V309.853C413.923 309.659 413.766 309.503 413.573 309.503H411.27C411.077 309.503 410.92 309.659 410.92 309.853V310.954C410.92 311.148 411.077 311.304 411.27 311.304Z" fill="#3F3D56"/>
<path d="M405.265 311.304H407.567C407.761 311.304 407.917 311.148 407.917 310.954V309.853C407.917 309.659 407.761 309.503 407.567 309.503H405.265C405.071 309.503 404.915 309.659 404.915 309.853V310.954C404.915 311.148 405.071 311.304 405.265 311.304Z" fill="#3F3D56"/>
<path d="M399.259 311.304H401.562C401.755 311.304 401.912 311.148 401.912 310.954V309.853C401.912 309.659 401.755 309.503 401.562 309.503H399.259C399.066 309.503 398.909 309.659 398.909 309.853V310.954C398.909 311.148 399.066 311.304 399.259 311.304Z" fill="#3F3D56"/>
<path d="M393.254 311.304H395.556C395.75 311.304 395.906 311.148 395.906 310.954V309.853C395.906 309.659 395.75 309.503 395.556 309.503H393.254C393.06 309.503 392.904 309.659 392.904 309.853V310.954C392.904 311.148 393.06 311.304 393.254 311.304Z" fill="#3F3D56"/>
<path d="M387.248 311.304H389.551C389.744 311.304 389.901 311.148 389.901 310.954V309.853C389.901 309.659 389.744 309.503 389.551 309.503H387.248C387.055 309.503 386.898 309.659 386.898 309.853V310.954C386.898 311.148 387.055 311.304 387.248 311.304Z" fill="#3F3D56"/>
<path d="M381.242 311.304H383.545C383.739 311.304 383.895 311.148 383.895 310.954V309.853C383.895 309.659 383.739 309.503 383.545 309.503H381.242C381.049 309.503 380.892 309.659 380.892 309.853V310.954C380.892 311.148 381.049 311.304 381.242 311.304Z" fill="#3F3D56"/>
<path d="M375.237 311.304H377.54C377.733 311.304 377.89 311.148 377.89 310.954V309.853C377.89 309.659 377.733 309.503 377.54 309.503H375.237C375.044 309.503 374.887 309.659 374.887 309.853V310.954C374.887 311.148 375.044 311.304 375.237 311.304Z" fill="#3F3D56"/>
<path d="M369.231 311.304H371.534C371.728 311.304 371.884 311.148 371.884 310.954V309.853C371.884 309.659 371.728 309.503 371.534 309.503H369.231C369.038 309.503 368.881 309.659 368.881 309.853V310.954C368.881 311.148 369.038 311.304 369.231 311.304Z" fill="#3F3D56"/>
<path d="M363.226 311.304H365.529C365.722 311.304 365.879 311.148 365.879 310.954V309.853C365.879 309.659 365.722 309.503 365.529 309.503H363.226C363.033 309.503 362.876 309.659 362.876 309.853V310.954C362.876 311.148 363.033 311.304 363.226 311.304Z" fill="#3F3D56"/>
<path d="M357.22 311.304H359.523C359.716 311.304 359.873 311.148 359.873 310.954V309.853C359.873 309.659 359.716 309.503 359.523 309.503H357.22C357.027 309.503 356.87 309.659 356.87 309.853V310.954C356.87 311.148 357.027 311.304 357.22 311.304Z" fill="#3F3D56"/>
<path d="M447.375 314.307H449.677C449.871 314.307 450.027 314.151 450.027 313.957V312.856C450.027 312.662 449.871 312.506 449.677 312.506H447.375C447.181 312.506 447.025 312.662 447.025 312.856V313.957C447.025 314.151 447.181 314.307 447.375 314.307Z" fill="#3F3D56"/>
<path d="M441.369 314.307H443.672C443.865 314.307 444.022 314.151 444.022 313.957V312.856C444.022 312.662 443.865 312.506 443.672 312.506H441.369C441.176 312.506 441.019 312.662 441.019 312.856V313.957C441.019 314.151 441.176 314.307 441.369 314.307Z" fill="#3F3D56"/>
<path d="M435.363 314.307H437.666C437.859 314.307 438.016 314.151 438.016 313.957V312.856C438.016 312.662 437.859 312.506 437.666 312.506H435.363C435.17 312.506 435.013 312.662 435.013 312.856V313.957C435.013 314.151 435.17 314.307 435.363 314.307Z" fill="#3F3D56"/>
<path d="M429.358 314.307H431.661C431.854 314.307 432.011 314.151 432.011 313.957V312.856C432.011 312.662 431.854 312.506 431.661 312.506H429.358C429.165 312.506 429.008 312.662 429.008 312.856V313.957C429.008 314.151 429.165 314.307 429.358 314.307Z" fill="#3F3D56"/>
<path d="M423.352 314.307H425.655C425.848 314.307 426.005 314.151 426.005 313.957V312.856C426.005 312.662 425.848 312.506 425.655 312.506H423.352C423.159 312.506 423.002 312.662 423.002 312.856V313.957C423.002 314.151 423.159 314.307 423.352 314.307Z" fill="#3F3D56"/>
<path d="M417.347 314.307H419.65C419.843 314.307 420 314.151 420 313.957V312.856C420 312.662 419.843 312.506 419.65 312.506H417.347C417.153 312.506 416.997 312.662 416.997 312.856V313.957C416.997 314.151 417.153 314.307 417.347 314.307Z" fill="#3F3D56"/>
<path d="M411.341 314.307H413.644C413.837 314.307 413.994 314.151 413.994 313.957V312.856C413.994 312.662 413.837 312.506 413.644 312.506H411.341C411.148 312.506 410.991 312.662 410.991 312.856V313.957C410.991 314.151 411.148 314.307 411.341 314.307Z" fill="#3F3D56"/>
<path d="M405.336 314.307H407.639C407.832 314.307 407.989 314.151 407.989 313.957V312.856C407.989 312.662 407.832 312.506 407.639 312.506H405.336C405.142 312.506 404.986 312.662 404.986 312.856V313.957C404.986 314.151 405.142 314.307 405.336 314.307Z" fill="#3F3D56"/>
<path d="M399.33 314.307H401.633C401.826 314.307 401.983 314.151 401.983 313.957V312.856C401.983 312.662 401.826 312.506 401.633 312.506H399.33C399.137 312.506 398.98 312.662 398.98 312.856V313.957C398.98 314.151 399.137 314.307 399.33 314.307Z" fill="#3F3D56"/>
<path d="M393.324 314.307H395.627C395.821 314.307 395.977 314.151 395.977 313.957V312.856C395.977 312.662 395.821 312.506 395.627 312.506H393.324C393.131 312.506 392.975 312.662 392.975 312.856V313.957C392.975 314.151 393.131 314.307 393.324 314.307Z" fill="#3F3D56"/>
<path d="M387.319 314.307H389.622C389.815 314.307 389.972 314.151 389.972 313.957V312.856C389.972 312.662 389.815 312.506 389.622 312.506H387.319C387.126 312.506 386.969 312.662 386.969 312.856V313.957C386.969 314.151 387.126 314.307 387.319 314.307Z" fill="#3F3D56"/>
<path d="M381.314 314.307H383.616C383.81 314.307 383.966 314.151 383.966 313.957V312.856C383.966 312.662 383.81 312.506 383.616 312.506H381.314C381.12 312.506 380.964 312.662 380.964 312.856V313.957C380.964 314.151 381.12 314.307 381.314 314.307Z" fill="#3F3D56"/>
<path d="M375.308 314.307H377.611C377.804 314.307 377.961 314.151 377.961 313.957V312.856C377.961 312.662 377.804 312.506 377.611 312.506H375.308C375.115 312.506 374.958 312.662 374.958 312.856V313.957C374.958 314.151 375.115 314.307 375.308 314.307Z" fill="#3F3D56"/>
<path d="M369.302 314.307H371.605C371.798 314.307 371.955 314.151 371.955 313.957V312.856C371.955 312.662 371.798 312.506 371.605 312.506H369.302C369.109 312.506 368.952 312.662 368.952 312.856V313.957C368.952 314.151 369.109 314.307 369.302 314.307Z" fill="#3F3D56"/>
<path d="M363.297 314.307H365.6C365.793 314.307 365.95 314.151 365.95 313.957V312.856C365.95 312.662 365.793 312.506 365.6 312.506H363.297C363.104 312.506 362.947 312.662 362.947 312.856V313.957C362.947 314.151 363.104 314.307 363.297 314.307Z" fill="#3F3D56"/>
<path d="M357.291 314.307H359.594C359.787 314.307 359.944 314.151 359.944 313.957V312.856C359.944 312.662 359.787 312.506 359.594 312.506H357.291C357.098 312.506 356.941 312.662 356.941 312.856V313.957C356.941 314.151 357.098 314.307 357.291 314.307Z" fill="#3F3D56"/>
<path d="M397.528 317.911H420.851C421.044 317.911 421.201 317.754 421.201 317.561V316.459C421.201 316.266 421.044 316.109 420.851 316.109H397.528C397.335 316.109 397.178 316.266 397.178 316.459V317.561C397.178 317.754 397.335 317.911 397.528 317.911Z" fill="#3F3D56"/>
<path d="M372.819 257.182H370.781C370.162 257.182 369.661 257.684 369.661 258.302C369.661 258.92 370.162 259.421 370.781 259.421H372.819C373.437 259.421 373.938 258.92 373.938 258.302C373.938 257.684 373.437 257.182 372.819 257.182Z" fill="white"/>
<path d="M396.135 257.182H394.097C393.479 257.182 392.978 257.684 392.978 258.302C392.978 258.92 393.479 259.421 394.097 259.421H396.135C396.753 259.421 397.255 258.92 397.255 258.302C397.255 257.684 396.753 257.182 396.135 257.182Z" fill="white"/>
<path d="M402.742 257.182H400.703C400.085 257.182 399.584 257.684 399.584 258.302C399.584 258.92 400.085 259.421 400.703 259.421H402.742C403.36 259.421 403.861 258.92 403.861 258.302C403.861 257.684 403.36 257.182 402.742 257.182Z" fill="white"/>
<path d="M389.793 256.996H377.123C376.504 256.996 376.003 257.497 376.003 258.115C376.003 258.733 376.504 259.234 377.123 259.234H389.793C390.411 259.234 390.912 258.733 390.912 258.115C390.912 257.497 390.411 256.996 389.793 256.996Z" fill="white"/>
<path d="M420.881 256.996H408.211C407.593 256.996 407.092 257.497 407.092 258.115C407.092 258.733 407.593 259.234 408.211 259.234H420.881C421.499 259.234 422.001 258.733 422.001 258.115C422.001 257.497 421.499 256.996 420.881 256.996Z" fill="white"/>
<path d="M379.037 262.234H376.998C376.38 262.234 375.879 262.735 375.879 263.353C375.879 263.972 376.38 264.473 376.998 264.473H379.037C379.655 264.473 380.156 263.972 380.156 263.353C380.156 262.735 379.655 262.234 379.037 262.234Z" fill="white"/>
<path d="M402.353 262.234H400.314C399.696 262.234 399.195 262.735 399.195 263.353C399.195 263.972 399.696 264.473 400.314 264.473H402.353C402.971 264.473 403.472 263.972 403.472 263.353C403.472 262.735 402.971 262.234 402.353 262.234Z" fill="white"/>
<path d="M408.959 262.234H406.921C406.303 262.234 405.802 262.735 405.802 263.353C405.802 263.972 406.303 264.473 406.921 264.473H408.959C409.577 264.473 410.078 263.972 410.078 263.353C410.078 262.735 409.577 262.234 408.959 262.234Z" fill="white"/>
<path d="M396.011 262.048H383.34C382.722 262.048 382.221 262.549 382.221 263.167C382.221 263.785 382.722 264.286 383.34 264.286H396.011C396.629 264.286 397.13 263.785 397.13 263.167C397.13 262.549 396.629 262.048 396.011 262.048Z" fill="white"/>
<path d="M427.099 262.048H414.428C413.81 262.048 413.309 262.549 413.309 263.167C413.309 263.785 413.81 264.286 414.428 264.286H427.099C427.717 264.286 428.218 263.785 428.218 263.167C428.218 262.549 427.717 262.048 427.099 262.048Z" fill="white"/>
<path d="M385.254 267.286H383.216C382.598 267.286 382.097 267.787 382.097 268.405C382.097 269.023 382.598 269.524 383.216 269.524H385.254C385.873 269.524 386.374 269.023 386.374 268.405C386.374 267.787 385.873 267.286 385.254 267.286Z" fill="white"/>
<path d="M408.571 267.286H406.532C405.914 267.286 405.413 267.787 405.413 268.405C405.413 269.023 405.914 269.524 406.532 269.524H408.571C409.189 269.524 409.69 269.023 409.69 268.405C409.69 267.787 409.189 267.286 408.571 267.286Z" fill="white"/>
<path d="M415.177 267.286H413.138C412.52 267.286 412.019 267.787 412.019 268.405C412.019 269.023 412.52 269.524 413.138 269.524H415.177C415.795 269.524 416.296 269.023 416.296 268.405C416.296 267.787 415.795 267.286 415.177 267.286Z" fill="white"/>
<path d="M402.229 267.099H389.558C388.94 267.099 388.439 267.601 388.439 268.219C388.439 268.837 388.94 269.338 389.558 269.338H402.229C402.847 269.338 403.348 268.837 403.348 268.219C403.348 267.601 402.847 267.099 402.229 267.099Z" fill="white"/>
<path d="M433.317 267.099H420.646C420.028 267.099 419.527 267.601 419.527 268.219C419.527 268.837 420.028 269.338 420.646 269.338H433.317C433.935 269.338 434.436 268.837 434.436 268.219C434.436 267.601 433.935 267.099 433.317 267.099Z" fill="white"/>
<path d="M391.472 272.338H389.434C388.816 272.338 388.314 272.839 388.314 273.457C388.314 274.075 388.816 274.576 389.434 274.576H391.472C392.09 274.576 392.591 274.075 392.591 273.457C392.591 272.839 392.09 272.338 391.472 272.338Z" fill="white"/>
<path d="M414.788 272.338H412.75C412.131 272.338 411.63 272.839 411.63 273.457C411.63 274.075 412.131 274.576 412.75 274.576H414.788C415.406 274.576 415.907 274.075 415.907 273.457C415.907 272.839 415.406 272.338 414.788 272.338Z" fill="white"/>
<path d="M421.394 272.338H419.356C418.738 272.338 418.237 272.839 418.237 273.457C418.237 274.075 418.738 274.576 419.356 274.576H421.394C422.013 274.576 422.514 274.075 422.514 273.457C422.514 272.839 422.013 272.338 421.394 272.338Z" fill="white"/>
<path d="M408.446 272.151H395.776C395.158 272.151 394.656 272.652 394.656 273.271C394.656 273.889 395.158 274.39 395.776 274.39H408.446C409.064 274.39 409.565 273.889 409.565 273.271C409.565 272.652 409.064 272.151 408.446 272.151Z" fill="white"/>
<path d="M396.135 292.426H394.097C393.479 292.426 392.978 292.927 392.978 293.545C392.978 294.163 393.479 294.664 394.097 294.664H396.135C396.753 294.664 397.255 294.163 397.255 293.545C397.255 292.927 396.753 292.426 396.135 292.426Z" fill="white"/>
<path d="M402.742 292.426H400.703C400.085 292.426 399.584 292.927 399.584 293.545C399.584 294.163 400.085 294.664 400.703 294.664H402.742C403.36 294.664 403.861 294.163 403.861 293.545C403.861 292.927 403.36 292.426 402.742 292.426Z" fill="white"/>
<path d="M420.881 292.613H408.211C407.593 292.613 407.092 293.114 407.092 293.732C407.092 294.35 407.593 294.851 408.211 294.851H420.881C421.499 294.851 422.001 294.35 422.001 293.732C422.001 293.114 421.499 292.613 420.881 292.613Z" fill="white"/>
<path d="M372.819 292.426H370.781C370.162 292.426 369.661 292.927 369.661 293.545C369.661 294.163 370.162 294.664 370.781 294.664H372.819C373.437 294.664 373.938 294.163 373.938 293.545C373.938 292.927 373.437 292.426 372.819 292.426Z" fill="white"/>
<path d="M389.793 292.613H377.123C376.504 292.613 376.003 293.114 376.003 293.732C376.003 294.35 376.504 294.851 377.123 294.851H389.793C390.411 294.851 390.912 294.35 390.912 293.732C390.912 293.114 390.411 292.613 389.793 292.613Z" fill="white"/>
<path d="M379.037 287.374H376.998C376.38 287.374 375.879 287.875 375.879 288.493C375.879 289.112 376.38 289.613 376.998 289.613H379.037C379.655 289.613 380.156 289.112 380.156 288.493C380.156 287.875 379.655 287.374 379.037 287.374Z" fill="white"/>
<path d="M402.353 287.374H400.314C399.696 287.374 399.195 287.875 399.195 288.493C399.195 289.112 399.696 289.613 400.314 289.613H402.353C402.971 289.613 403.472 289.112 403.472 288.493C403.472 287.875 402.971 287.374 402.353 287.374Z" fill="white"/>
<path d="M408.959 287.374H406.921C406.303 287.374 405.802 287.875 405.802 288.493C405.802 289.112 406.303 289.613 406.921 289.613H408.959C409.577 289.613 410.078 289.112 410.078 288.493C410.078 287.875 409.577 287.374 408.959 287.374Z" fill="white"/>
<path d="M396.011 287.561H383.34C382.722 287.561 382.221 288.062 382.221 288.68C382.221 289.298 382.722 289.799 383.34 289.799H396.011C396.629 289.799 397.13 289.298 397.13 288.68C397.13 288.062 396.629 287.561 396.011 287.561Z" fill="white"/>
<path d="M385.254 282.323H383.216C382.598 282.323 382.097 282.824 382.097 283.442C382.097 284.06 382.598 284.561 383.216 284.561H385.254C385.873 284.561 386.374 284.06 386.374 283.442C386.374 282.824 385.873 282.323 385.254 282.323Z" fill="white"/>
<path d="M408.571 282.323H406.532C405.914 282.323 405.413 282.824 405.413 283.442C405.413 284.06 405.914 284.561 406.532 284.561H408.571C409.189 284.561 409.69 284.06 409.69 283.442C409.69 282.824 409.189 282.323 408.571 282.323Z" fill="white"/>
<path d="M415.177 282.323H413.138C412.52 282.323 412.019 282.824 412.019 283.442C412.019 284.06 412.52 284.561 413.138 284.561H415.177C415.795 284.561 416.296 284.06 416.296 283.442C416.296 282.824 415.795 282.323 415.177 282.323Z" fill="white"/>
<path d="M402.229 282.509H389.558C388.94 282.509 388.439 283.01 388.439 283.628C388.439 284.246 388.94 284.747 389.558 284.747H402.229C402.847 284.747 403.348 284.246 403.348 283.628C403.348 283.01 402.847 282.509 402.229 282.509Z" fill="white"/>
<path d="M391.472 277.271H389.434C388.816 277.271 388.314 277.772 388.314 278.39C388.314 279.008 388.816 279.509 389.434 279.509H391.472C392.09 279.509 392.591 279.008 392.591 278.39C392.591 277.772 392.09 277.271 391.472 277.271Z" fill="white"/>
<path d="M414.788 277.271H412.75C412.131 277.271 411.63 277.772 411.63 278.39C411.63 279.008 412.131 279.509 412.75 279.509H414.788C415.406 279.509 415.907 279.008 415.907 278.39C415.907 277.772 415.406 277.271 414.788 277.271Z" fill="white"/>
<path d="M421.394 277.271H419.356C418.738 277.271 418.237 277.772 418.237 278.39C418.237 279.008 418.738 279.509 419.356 279.509H421.394C422.013 279.509 422.514 279.008 422.514 278.39C422.514 277.772 422.013 277.271 421.394 277.271Z" fill="white"/>
<path d="M408.446 277.457H395.776C395.158 277.457 394.656 277.958 394.656 278.576C394.656 279.195 395.158 279.696 395.776 279.696H408.446C409.064 279.696 409.565 279.195 409.565 278.576C409.565 277.958 409.064 277.457 408.446 277.457Z" fill="white"/>
<path d="M361.981 351.632L352.41 336.504L382.45 312.557L394.849 298.82C396.46 297.035 398.511 295.705 400.798 294.961C403.084 294.217 405.525 294.087 407.878 294.582C410.23 295.078 412.412 296.182 414.204 297.785C415.996 299.387 417.336 301.432 418.09 303.715C419.208 307.098 418.967 310.783 417.42 313.992C415.872 317.201 413.138 319.683 409.795 320.914L390.189 328.137L361.981 351.632Z" fill="#FFB6B6"/>
<path d="M137.425 241.944V315.47H188.935V241.944C188.935 241.415 188.767 240.9 188.453 240.474C188.14 240.048 187.698 239.734 187.193 239.578C186.954 239.499 186.705 239.46 186.454 239.463H139.912C139.586 239.463 139.263 239.526 138.961 239.651C138.66 239.775 138.385 239.957 138.154 240.188C137.923 240.418 137.74 240.692 137.615 240.993C137.489 241.294 137.425 241.617 137.425 241.944ZM157.527 267.208C157.54 265.758 158.125 264.372 159.155 263.352C160.185 262.332 161.576 261.76 163.025 261.76C164.475 261.76 165.866 262.332 166.896 263.352C167.925 264.372 168.511 265.758 168.524 267.208V275.739C168.517 277.192 167.934 278.584 166.904 279.609C165.873 280.634 164.479 281.21 163.025 281.21C161.572 281.21 160.178 280.634 159.147 279.609C158.117 278.584 157.534 277.192 157.527 275.739V267.208Z" fill="#2F2E41"/>
<path d="M137.267 313.119V320.209C137.268 320.576 137.414 320.928 137.673 321.188C137.932 321.449 138.283 321.596 138.65 321.6H187.709C188.076 321.598 188.428 321.45 188.688 321.19C188.947 320.929 189.092 320.576 189.092 320.209V313.119H137.267Z" fill="#3F3D56"/>
<path d="M56.3921 131.167V265.415C56.3934 267.126 57.0737 268.767 58.2834 269.976C59.4931 271.186 61.1335 271.866 62.8443 271.868H261.787C263.498 271.866 265.138 271.186 266.348 269.976C267.558 268.767 268.238 267.126 268.239 265.415V131.167C268.235 129.457 267.554 127.819 266.344 126.611C265.135 125.403 263.496 124.724 261.787 124.722H62.8443C61.135 124.724 59.4962 125.403 58.2868 126.611C57.0775 127.819 56.3962 129.457 56.3921 131.167Z" fill="#3F3D56"/>
<path d="M61.0593 132.837V263.759C61.0609 264.673 61.4247 265.549 62.071 266.196C62.7174 266.842 63.5936 267.206 64.5077 267.208H260.131C261.045 267.206 261.921 266.842 262.568 266.196C263.214 265.549 263.578 264.673 263.579 263.759V132.837C263.579 131.922 263.216 131.044 262.57 130.396C261.923 129.748 261.046 129.383 260.131 129.381H64.5077C63.5925 129.383 62.7155 129.748 62.069 130.396C61.4225 131.044 61.0594 131.922 61.0593 132.837Z" fill="white"/>
<path d="M97.3636 321.119C97.5627 321.369 97.8158 321.57 98.1039 321.708C98.3919 321.846 98.7075 321.917 99.0268 321.915H215.41C215.728 321.915 216.043 321.843 216.33 321.706C216.617 321.569 216.87 321.37 217.071 321.123C217.271 320.875 217.414 320.587 217.489 320.277C217.564 319.968 217.569 319.646 217.504 319.334L215.697 310.753C215.622 310.403 215.461 310.077 215.228 309.805C214.995 309.534 214.698 309.325 214.363 309.197C214.121 309.102 213.864 309.053 213.604 309.054H100.826C100.566 309.053 100.308 309.102 100.066 309.197C99.732 309.325 99.4348 309.534 99.2019 309.805C98.969 310.077 98.8078 310.403 98.7329 310.753L96.9263 319.334C96.862 319.646 96.8679 319.967 96.9435 320.276C97.0192 320.585 97.1627 320.873 97.3636 321.119Z" fill="#2F2E41"/>
<path d="M253.782 147.417H70.7383C70.548 147.412 70.367 147.334 70.2339 147.198C70.1009 147.062 70.0264 146.879 70.0264 146.689C70.0264 146.498 70.1009 146.316 70.2339 146.18C70.367 146.043 70.548 145.965 70.7383 145.961H253.782C253.973 145.965 254.154 146.043 254.287 146.18C254.42 146.316 254.494 146.498 254.494 146.689C254.494 146.879 254.42 147.062 254.287 147.198C254.154 147.334 253.973 147.412 253.782 147.417Z" fill="#3F3D56"/>
<path d="M83.1985 142.244C85.5545 142.244 87.4645 140.292 87.4645 137.883C87.4645 135.475 85.5545 133.522 83.1985 133.522C80.8425 133.522 78.9326 135.475 78.9326 137.883C78.9326 140.292 80.8425 142.244 83.1985 142.244Z" fill="#3F3D56"/>
<path d="M97.9354 142.244C100.291 142.244 102.201 140.292 102.201 137.883C102.201 135.475 100.291 133.522 97.9354 133.522C95.5794 133.522 93.6694 135.475 93.6694 137.883C93.6694 140.292 95.5794 142.244 97.9354 142.244Z" fill="#3F3D56"/>
<path d="M112.672 142.244C115.028 142.244 116.938 140.292 116.938 137.883C116.938 135.475 115.028 133.522 112.672 133.522C110.316 133.522 108.406 135.475 108.406 137.883C108.406 140.292 110.316 142.244 112.672 142.244Z" fill="#3F3D56"/>
<path d="M244.908 134.601H234.441C234.235 134.605 234.038 134.691 233.893 134.839C233.748 134.987 233.667 135.186 233.667 135.393C233.667 135.6 233.748 135.798 233.893 135.947C234.038 136.095 234.235 136.18 234.441 136.185H244.908C245.116 136.182 245.315 136.097 245.461 135.949C245.607 135.801 245.689 135.601 245.689 135.393C245.689 135.185 245.607 134.985 245.461 134.837C245.315 134.688 245.116 134.604 244.908 134.601Z" fill="#3F3D56"/>
<path d="M244.909 137.576H234.442C234.235 137.58 234.037 137.666 233.893 137.814C233.748 137.962 233.667 138.161 233.667 138.368C233.667 138.575 233.748 138.774 233.893 138.922C234.037 139.07 234.235 139.156 234.442 139.16H244.909C245.117 139.158 245.316 139.073 245.463 138.925C245.609 138.777 245.691 138.576 245.691 138.368C245.691 138.16 245.609 137.959 245.463 137.811C245.316 137.663 245.117 137.578 244.909 137.576Z" fill="#3F3D56"/>
<path d="M244.908 140.551H234.441C234.235 140.556 234.038 140.641 233.893 140.789C233.748 140.937 233.667 141.136 233.667 141.343C233.667 141.55 233.748 141.749 233.893 141.897C234.038 142.045 234.235 142.13 234.441 142.135H244.908C245.116 142.132 245.315 142.048 245.461 141.899C245.607 141.751 245.689 141.551 245.689 141.343C245.689 141.135 245.607 140.935 245.461 140.787C245.315 140.639 245.116 140.554 244.908 140.551Z" fill="#3F3D56"/>
<path d="M497.246 316.23C497.562 317.15 498.161 317.946 498.958 318.504C499.754 319.061 500.707 319.353 501.679 319.335L520.671 318.846C521.651 318.827 522.597 318.492 523.37 317.89C524.143 317.288 524.701 316.453 524.959 315.508L527.647 286.769C528.6 287.201 529.638 287.414 530.685 287.393C531.594 287.37 532.49 287.169 533.321 286.8C534.153 286.43 534.903 285.901 535.53 285.242C536.157 284.583 536.648 283.807 536.975 282.958C537.302 282.109 537.458 281.204 537.435 280.295C537.412 279.386 537.211 278.49 536.842 277.659C536.473 276.827 535.943 276.077 535.284 275.45C534.625 274.823 533.849 274.332 533 274.005C532.151 273.679 531.247 273.522 530.337 273.545C529.919 273.543 529.502 273.587 529.093 273.674C528.648 273.193 528.107 272.81 527.505 272.55C526.903 272.291 526.254 272.16 525.598 272.167L496.384 272.921C496.141 272.93 495.9 272.96 495.663 273.011C495.023 273.13 494.415 273.385 493.881 273.759C493.347 274.133 492.9 274.617 492.569 275.178C492.238 275.74 492.031 276.366 491.962 277.014C491.893 277.662 491.964 278.317 492.17 278.935L497.246 316.23ZM528.198 284.817L530.11 277.969C530.328 277.178 530.333 276.343 530.125 275.55C530.218 275.55 530.3 275.506 530.392 275.505C531.704 275.478 532.972 275.972 533.92 276.879C534.867 277.786 535.417 279.031 535.448 280.342C535.478 281.654 534.988 282.924 534.084 283.874C533.179 284.824 531.935 285.377 530.624 285.411C529.777 285.437 528.938 285.232 528.198 284.817Z" fill="#2F2E41"/>
<path d="M495.663 273.01C496.285 276.569 503.283 279.071 511.697 278.636C519.435 278.28 525.761 275.563 526.92 272.343C526.491 272.216 526.045 272.157 525.598 272.167L496.384 272.921C496.141 272.93 495.9 272.96 495.663 273.01Z" fill="#3F3D56"/>
<path d="M513.239 300.438C513.278 300.428 513.314 300.412 513.348 300.39L517.472 297.691C517.522 297.658 517.563 297.614 517.591 297.561C517.62 297.509 517.635 297.45 517.635 297.391C517.635 297.331 517.62 297.273 517.591 297.221C517.563 297.168 517.522 297.124 517.472 297.091L513.185 294.283C513.146 294.257 513.102 294.239 513.056 294.23C513.009 294.221 512.962 294.222 512.915 294.231C512.869 294.241 512.825 294.259 512.786 294.286C512.747 294.312 512.714 294.346 512.688 294.386C512.662 294.425 512.644 294.469 512.636 294.516C512.627 294.562 512.627 294.61 512.637 294.656C512.647 294.702 512.666 294.746 512.692 294.785C512.719 294.824 512.753 294.857 512.793 294.883L516.622 297.39L512.955 299.791C512.884 299.837 512.832 299.907 512.808 299.988C512.784 300.07 512.789 300.157 512.823 300.235C512.857 300.312 512.918 300.375 512.994 300.412C513.07 300.45 513.157 300.459 513.239 300.438Z" fill="#2EBF5F"/>
<path d="M506.725 300.738C506.794 300.721 506.857 300.683 506.904 300.63C506.952 300.577 506.982 300.51 506.992 300.44C507.002 300.369 506.99 300.297 506.959 300.233C506.927 300.169 506.877 300.115 506.815 300.08L503.014 297.9L506.688 295.171C506.726 295.143 506.758 295.108 506.782 295.067C506.806 295.027 506.822 294.982 506.829 294.936C506.836 294.889 506.833 294.842 506.822 294.796C506.81 294.75 506.79 294.707 506.762 294.67C506.734 294.632 506.699 294.6 506.658 294.576C506.618 294.552 506.573 294.536 506.527 294.529C506.48 294.522 506.433 294.525 506.387 294.536C506.342 294.547 506.299 294.568 506.261 294.596L502.147 297.652C502.099 297.687 502.061 297.734 502.036 297.788C502.01 297.842 501.999 297.901 502.003 297.961C502.006 298.02 502.024 298.078 502.056 298.128C502.087 298.179 502.13 298.221 502.182 298.25L506.459 300.702C506.539 300.748 506.635 300.761 506.725 300.738Z" fill="#2EBF5F"/>
<path d="M512.829 302.804C512.864 302.795 512.897 302.781 512.928 302.762C512.968 302.738 513.003 302.706 513.031 302.668C513.059 302.63 513.079 302.587 513.09 302.541C513.101 302.495 513.103 302.448 513.096 302.401C513.089 302.355 513.072 302.31 513.048 302.27L507.201 292.657C507.151 292.576 507.072 292.518 506.979 292.496C506.887 292.473 506.79 292.489 506.708 292.538C506.627 292.587 506.569 292.667 506.547 292.759C506.524 292.852 506.539 292.949 506.588 293.03L512.435 302.643C512.475 302.708 512.535 302.759 512.606 302.788C512.677 302.817 512.755 302.823 512.829 302.804Z" fill="#2EBF5F"/>
<path d="M184.131 186.99H152.45C151.158 186.99 150.11 188.037 150.11 189.33V192.425C150.11 193.717 151.158 194.765 152.45 194.765H184.131C185.424 194.765 186.471 193.717 186.471 192.425V189.33C186.471 188.037 185.424 186.99 184.131 186.99Z" fill="#2D84FF"/>
<path d="M202.598 202.541H133.984C132.691 202.541 131.644 203.588 131.644 204.881V207.976C131.644 209.268 132.691 210.316 133.984 210.316H202.598C203.89 210.316 204.938 209.268 204.938 207.976V204.881C204.938 203.588 203.89 202.541 202.598 202.541Z" fill="#E6E6E6"/>
<path d="M202.598 218.091H133.984C132.691 218.091 131.644 219.139 131.644 220.432V223.527C131.644 224.819 132.691 225.867 133.984 225.867H202.598C203.89 225.867 204.938 224.819 204.938 223.527V220.432C204.938 219.139 203.89 218.091 202.598 218.091Z" fill="#E6E6E6"/>
<path d="M208.414 270.165L208.569 270.656L208.578 270.672L213.256 284.894L218.637 301.283L228.762 332.083L228.86 336.867V336.883L229.612 375.37L227.527 380.588L229.874 389.142C229.874 389.142 228.794 376.212 223.004 383.637C219.725 387.857 215.889 392.176 212.74 396.224C217.328 398.08 221.99 399.76 226.725 401.262C227.748 401.589 228.778 401.9 229.808 402.21C230.029 402.276 230.25 402.341 230.471 402.407C246.167 407.049 262.395 409.657 278.755 410.168C279.606 410.192 280.44 410.209 281.25 410.225C281.536 410.233 281.814 410.241 282.092 410.241C283.008 410.25 283.916 410.258 284.832 410.258C286.68 410.258 288.52 410.23 290.352 410.176C303.911 409.794 317.391 407.971 330.565 404.737C330.475 399.299 330.23 392.944 329.878 386.156C329.714 382.828 326.042 379.221 325.821 375.737C325.666 373.12 328.962 370.659 328.79 368.001C327.678 351.636 326.288 357.918 325.257 346.329C325.151 345.192 325.053 344.105 324.963 343.066C324.3 335.624 323.842 330.97 323.842 330.97L328.242 303.238L335.153 259.697L334.621 258.822L334.024 258.527L297.574 240.486L295.595 235.415C295.018 233.955 294.017 232.7 292.722 231.812C291.426 230.925 289.895 230.445 288.324 230.435L264.313 230.337C263.066 230.331 261.837 230.623 260.726 231.187C259.615 231.752 258.655 232.573 257.925 233.583L251.424 242.588L208.414 270.165Z" fill="#3F3D56"/>
<path d="M234.298 325.229L228.86 336.867L225.147 344.816L218.76 378.257L215.562 381.651L212.822 369.636L184.147 376.003C183.207 370.777 183.896 376.18 183.315 370.447C183.479 370.283 183.65 370.12 183.822 369.956C184.28 369.531 184.664 369.13 184.656 368.746C184.329 348.971 185.31 315.317 193.505 294.929C194.789 291.6 196.481 288.443 198.543 285.532C198.706 285.311 198.862 285.09 199.017 284.869C202.796 279.578 205.184 274.369 208.569 270.664V270.656C208.591 270.639 208.61 270.619 208.627 270.598C208.639 270.592 208.65 270.584 208.659 270.574L231.918 258.241L232.916 286.276L233.628 306.427L234.298 325.229Z" fill="#3F3D56"/>
<path d="M318.166 328.535L324.959 343.07L327.331 348.132L333.716 381.57L336.903 384.956L339.649 372.944L340.94 372.679L364.209 367.86L370.992 389.4C372.52 386.853 373.123 383.856 372.697 380.916C372.271 377.977 370.843 375.274 368.654 373.266C368.191 372.847 367.805 372.439 367.816 372.053C368.202 348.794 366.779 306.324 353.931 288.844C349.85 283.296 347.402 277.771 343.84 273.911C343.829 273.9 343.829 273.889 343.818 273.889L335.15 259.696L334.62 258.824L334.025 258.527L318.166 328.535Z" fill="#3F3D56"/>
<path d="M277.012 223.503C294.654 223.503 308.956 209.201 308.956 191.559C308.956 173.917 294.654 159.615 277.012 159.615C259.369 159.615 245.067 173.917 245.067 191.559C245.067 209.201 259.369 223.503 277.012 223.503Z" fill="#FFB6B6"/>
<path d="M320.188 169.246C319.941 168.982 319.642 168.77 319.311 168.623C318.98 168.476 318.622 168.398 318.26 168.393L318.74 167.06C318.897 166.639 318.939 166.185 318.863 165.744C318.786 165.302 318.594 164.888 318.305 164.546C318.016 164.203 317.641 163.943 317.219 163.792C316.796 163.642 316.342 163.607 315.901 163.69L314.152 164.027L314.317 162.858C314.38 162.423 314.329 161.979 314.168 161.57C314.008 161.16 313.744 160.799 313.401 160.523C313.059 160.247 312.651 160.064 312.217 159.994C311.783 159.923 311.338 159.966 310.926 160.12C310.551 160.267 310.148 160.329 309.746 160.301C309.344 160.272 308.953 160.154 308.603 159.955C308.251 159.762 307.946 159.495 307.708 159.171C307.47 158.848 307.306 158.477 307.227 158.084L306.617 155.144L306.553 154.987C303.585 150.04 297.878 146.441 290.895 145.122C284.68 143.939 278.306 144.541 272.162 145.108C269.725 145.337 266.972 145.595 264.678 147C262.728 148.205 261.079 150.614 261.416 153.044C255.358 151.187 248.863 154.893 245.644 159.568C241.83 165.131 241.206 172.099 241.106 177.548C240.833 190.438 243.493 200.984 248.992 208.898C249.393 209.472 249.494 210.669 250.29 211.071L250.125 210.805C251.014 211.25 251.917 211.967 251.58 212.734C250.612 214.942 257.043 219.824 261.574 221.437C269.84 224.384 280.83 224.133 288.558 223.072L288.831 221.244C291.619 220.864 293.584 220.14 294.136 219.007C295.111 218.175 295.942 217.43 296.666 216.741L296.674 216.734C296.688 216.72 296.717 216.698 296.731 216.684C300.222 213.336 301.032 211.429 301.398 208.526C301.749 205.679 301.126 202.79 300.488 200.188C313.923 202.267 295.197 185.878 307.714 182.71C307.858 182.665 308.004 182.63 308.151 182.602C308.517 182.516 308.883 182.43 309.234 182.33C310.927 181.87 312.549 181.178 314.052 180.272C317.55 178.143 318.704 175.318 320.511 172.135C320.772 171.682 320.881 171.157 320.823 170.638C320.765 170.118 320.543 169.631 320.188 169.246Z" fill="#2F2E41"/>
<path d="M389.994 330.809C389.987 332.064 389.973 333.82 389.915 335.992C389.908 336.293 389.901 336.602 389.894 336.917C389.8 340.91 389.707 344.258 389.557 347.979C389.55 348.237 389.542 348.488 389.528 348.746C389.327 353.937 389.012 359.98 388.467 369.551C387.456 387.23 385.693 371.981 383.922 378.182C383.836 378.491 383.743 378.856 383.657 379.287C383.388 380.847 382.936 382.371 382.309 383.825C381.37 384.384 380.402 384.921 379.448 385.459C376.731 386.972 373.971 388.427 371.189 389.811C369.627 390.585 368.057 391.345 366.479 392.076C366.228 392.191 365.985 392.306 365.741 392.413C357.664 396.149 349.341 399.325 340.828 401.919C339.165 402.421 337.509 402.909 335.831 403.36C334.082 403.848 332.333 404.307 330.562 404.737C317.389 407.971 303.909 409.795 290.351 410.178C288.523 410.236 286.68 410.257 284.83 410.257C283.913 410.257 283.009 410.25 282.092 410.243C281.812 410.243 281.533 410.236 281.253 410.228C280.443 410.207 279.604 410.193 278.758 410.171C262.397 409.661 246.17 407.051 230.474 402.407L229.808 402.213C228.775 401.898 227.75 401.59 226.725 401.26C221.993 399.762 217.331 398.084 212.738 396.227C209.232 394.815 205.767 393.3 202.343 391.682C202.311 391.673 202.282 391.659 202.257 391.639C201.54 391.309 200.816 390.965 200.099 390.614C200.006 390.564 199.905 390.513 199.805 390.463C197.131 389.158 194.485 387.792 191.869 386.362C189.668 381.308 186.571 380.34 184.649 375.896C184.09 374.575 183.686 373.194 183.445 371.78C183.445 371.766 183.438 371.752 183.438 371.73C183.638 374.397 182.585 366.999 183.431 371.702C183.423 371.616 183.416 371.522 183.409 371.415C183.388 371.157 183.359 370.841 183.316 370.447C180.857 346.438 181.015 318.98 179.946 296.354C179.875 294.892 179.801 293.491 179.724 292.153C179.703 291.709 179.674 291.271 179.645 290.841C179.695 290.712 179.753 290.576 179.817 290.447C179.831 290.41 179.848 290.374 179.868 290.339C179.889 290.295 179.913 290.252 179.939 290.21C179.954 290.189 179.975 290.16 179.989 290.139C180 290.114 180.012 290.09 180.025 290.067C180.09 289.967 180.161 289.859 180.24 289.759C180.276 289.716 180.305 289.68 180.341 289.644C180.365 289.607 180.394 289.574 180.427 289.544C180.449 289.509 180.475 289.478 180.506 289.45C180.534 289.422 180.563 289.386 180.599 289.35C180.614 289.328 180.634 289.308 180.656 289.293C180.713 289.228 180.775 289.168 180.842 289.114C181.098 288.878 181.371 288.662 181.66 288.468C181.76 288.404 181.868 288.339 181.968 288.268C182.691 287.835 183.451 287.471 184.241 287.178C184.513 287.078 184.786 286.984 185.079 286.884C185.187 286.855 185.287 286.819 185.395 286.784C185.553 286.733 185.71 286.683 185.875 286.647C186.692 286.404 187.574 286.196 188.528 286.002C188.642 285.981 188.764 285.959 188.886 285.93C189.058 285.895 189.238 285.866 189.417 285.837C189.661 285.794 189.911 285.751 190.162 285.708C192.292 285.371 194.708 285.12 197.374 284.955C197.625 284.941 197.876 284.927 198.127 284.912C198.421 284.898 198.715 284.884 199.016 284.869C199.267 284.855 199.525 284.848 199.783 284.841C200.034 284.826 200.292 284.819 200.558 284.812C201.282 284.791 202.027 284.769 202.787 284.755C204.952 284.712 207.232 284.726 209.626 284.776C210.738 284.805 211.87 284.834 213.032 284.884C213.111 284.884 213.182 284.891 213.254 284.891C214.265 284.927 215.283 284.97 216.33 285.027C217.061 285.063 217.799 285.099 218.538 285.142C219.233 285.185 219.936 285.228 220.645 285.278C221.197 285.307 221.749 285.35 222.309 285.386C222.782 285.421 223.255 285.457 223.728 285.486L224.373 285.529C224.725 285.558 225.076 285.579 225.434 285.615C226.223 285.68 227.012 285.744 227.814 285.809C228.61 285.88 229.42 285.952 230.23 286.024C231.041 286.095 231.858 286.174 232.675 286.253C232.761 286.26 232.84 286.267 232.919 286.275C233.664 286.353 234.41 286.425 235.163 286.504C235.335 286.518 235.514 286.533 235.686 286.554C236.404 286.626 237.136 286.711 237.86 286.788C238.082 286.812 238.303 286.835 238.526 286.859C239.093 286.921 239.653 286.975 240.224 287.042C240.977 287.128 241.744 287.207 242.49 287.307C243.07 287.371 243.651 287.436 244.232 287.508C245.142 287.615 246.067 287.73 246.992 287.852C247.343 287.895 247.694 287.938 248.046 287.988C250.684 288.318 253.351 288.683 256.061 289.063C260.169 289.644 264.341 290.275 268.542 290.956C272.75 291.637 276.983 292.356 281.239 293.114C282.314 293.307 283.389 293.501 284.472 293.702C284.959 293.795 285.447 293.888 285.934 293.981C286.766 294.132 287.598 294.29 288.429 294.447C289.261 294.605 290.092 294.763 290.924 294.928C291.913 295.121 292.91 295.315 293.899 295.508C300.416 296.799 306.897 298.175 313.22 299.616C314.259 299.853 315.299 300.097 316.331 300.333C318.396 300.813 320.442 301.301 322.468 301.796C323.027 301.925 323.579 302.061 324.131 302.197C325.508 302.541 326.884 302.885 328.239 303.237L328.476 303.301C329.472 303.545 330.447 303.796 331.422 304.054C333.724 304.656 335.987 305.266 338.211 305.882C339.688 306.291 341.148 306.704 342.592 307.122C344.75 307.746 346.865 308.377 348.922 309.015C349.431 309.173 349.94 309.33 350.442 309.481C351.947 309.947 353.431 310.42 354.872 310.893C356.02 311.266 357.138 311.646 358.242 312.026C359.346 312.406 360.429 312.786 361.49 313.166C362.171 313.41 362.845 313.668 363.518 313.911C364.486 314.27 365.44 314.628 366.372 314.987C366.659 315.094 366.938 315.209 367.218 315.317C367.397 315.395 367.569 315.46 367.741 315.532C368.078 315.668 368.422 315.797 368.752 315.933C369.089 316.062 369.419 316.198 369.748 316.342C370.071 316.471 370.401 316.607 370.716 316.743C371.039 316.872 371.354 317.008 371.67 317.152C371.935 317.259 372.193 317.374 372.444 317.489C372.953 317.711 373.462 317.933 373.957 318.163C374.2 318.277 374.444 318.385 374.688 318.5L375.247 318.758C375.326 318.801 375.405 318.837 375.484 318.872C375.663 318.958 375.849 319.052 376.029 319.138C376.444 319.331 376.853 319.539 377.254 319.733C377.792 320.005 378.315 320.278 378.817 320.543C379.326 320.815 379.821 321.088 380.294 321.353C380.373 321.396 380.445 321.439 380.524 321.482C380.631 321.539 380.739 321.604 380.846 321.661C381.212 321.869 381.563 322.084 381.914 322.292C382.603 322.715 383.255 323.131 383.864 323.547C384.001 323.64 384.13 323.733 384.266 323.819C384.717 324.142 385.148 324.457 385.549 324.78C385.549 324.787 385.549 324.787 385.556 324.787C385.693 324.887 385.822 324.995 385.951 325.095C386.058 325.196 386.173 325.282 386.28 325.382C386.653 325.705 386.997 326.013 387.313 326.328C387.418 326.426 387.519 326.529 387.614 326.637C387.656 326.671 387.694 326.71 387.729 326.751C387.872 326.895 388.001 327.038 388.123 327.181C388.142 327.201 388.159 327.223 388.173 327.246C388.345 327.447 388.503 327.647 388.653 327.848C388.725 327.949 388.804 328.049 388.868 328.149C388.954 328.271 389.04 328.4 389.112 328.522C389.177 328.622 389.234 328.73 389.291 328.83C389.444 329.089 389.573 329.36 389.679 329.64C389.759 329.831 389.824 330.027 389.872 330.228C389.926 330.419 389.967 330.613 389.994 330.809Z" fill="#2F2E41"/>
<path opacity="0.2" d="M389.994 330.809C389.987 332.064 389.972 333.82 389.915 335.992C389.908 336.293 389.894 336.602 389.886 336.917C389.815 339.964 389.707 343.728 389.557 347.979C389.549 348.237 389.542 348.488 389.528 348.746C389.327 353.937 389.012 359.98 388.467 369.551C387.456 387.23 385.692 371.981 383.922 378.182C379.004 375.157 373.612 371.988 367.849 368.734C366.809 368.146 365.76 367.555 364.701 366.963C353.173 360.532 340.298 353.793 326.856 347.119C326.325 346.854 325.787 346.588 325.257 346.33C294.466 331.11 260.857 316.306 233.629 306.427C228.374 304.52 223.355 302.799 218.638 301.287C208.701 298.111 200.113 295.888 193.503 294.928C186.621 293.924 181.868 294.282 179.946 296.354C179.875 294.892 179.8 293.491 179.724 292.153C179.695 291.709 179.667 291.271 179.638 290.841C179.682 290.723 179.74 290.611 179.795 290.497C179.803 290.48 179.809 290.463 179.817 290.447C179.831 290.41 179.848 290.374 179.867 290.339C179.888 290.295 179.912 290.252 179.939 290.21C179.962 290.16 179.991 290.111 180.025 290.067C180.09 289.967 180.161 289.859 180.24 289.759C180.298 289.683 180.36 289.612 180.427 289.544C180.449 289.509 180.475 289.478 180.505 289.45C180.534 289.422 180.563 289.386 180.599 289.35C180.614 289.327 180.633 289.308 180.656 289.293C180.713 289.228 180.775 289.168 180.842 289.113C181.098 288.878 181.371 288.662 181.66 288.468C181.76 288.404 181.868 288.339 181.968 288.267C182.69 287.835 183.451 287.471 184.241 287.178C184.513 287.077 184.785 286.984 185.079 286.884C185.187 286.855 185.287 286.819 185.395 286.784C185.552 286.733 185.71 286.683 185.875 286.647C186.692 286.404 187.574 286.196 188.528 286.002C188.814 285.945 189.116 285.887 189.417 285.837C189.66 285.794 189.911 285.751 190.162 285.708C192.291 285.371 194.707 285.12 197.374 284.955C197.625 284.941 197.876 284.927 198.127 284.912C198.421 284.898 198.715 284.884 199.016 284.869C199.267 284.855 199.525 284.848 199.783 284.841C200.034 284.826 200.292 284.819 200.557 284.812C201.281 284.791 202.027 284.769 202.787 284.755C204.952 284.719 207.232 284.733 209.626 284.783C210.738 284.805 211.87 284.841 213.032 284.891C213.103 284.891 213.182 284.898 213.254 284.898C214.265 284.927 215.29 284.977 216.329 285.027C217.061 285.063 217.799 285.099 218.537 285.142C219.233 285.185 219.935 285.228 220.645 285.278C221.197 285.307 221.749 285.35 222.308 285.386C222.782 285.421 223.255 285.457 223.728 285.486C224.294 285.529 224.861 285.572 225.434 285.615C226.223 285.679 227.011 285.744 227.814 285.808C228.61 285.88 229.42 285.952 230.23 286.024C231.04 286.095 231.858 286.174 232.675 286.253C232.761 286.26 232.84 286.267 232.919 286.275C233.664 286.353 234.41 286.425 235.163 286.504C239.335 286.927 243.629 287.422 248.046 287.988C250.684 288.325 253.355 288.686 256.061 289.07C260.168 289.651 264.341 290.282 268.542 290.956C272.75 291.637 276.982 292.356 281.238 293.114C282.314 293.307 283.389 293.501 284.472 293.702C285.791 293.945 287.11 294.194 288.429 294.447C289.261 294.605 290.092 294.763 290.924 294.928C291.913 295.121 292.91 295.315 293.899 295.508C300.416 296.799 306.897 298.175 313.22 299.616C314.259 299.853 315.299 300.097 316.331 300.333C318.396 300.813 320.442 301.301 322.468 301.796C323.027 301.932 323.579 302.068 324.131 302.204C325.515 302.548 326.884 302.892 328.239 303.237V303.244C328.318 303.258 328.397 303.28 328.476 303.301C329.465 303.552 330.447 303.803 331.422 304.061C333.724 304.663 335.987 305.27 338.211 305.882C339.688 306.298 341.151 306.706 342.592 307.122C344.75 307.753 346.865 308.384 348.922 309.015C349.431 309.173 349.94 309.33 350.442 309.481C351.947 309.954 353.424 310.425 354.872 310.893C356.019 311.266 357.138 311.646 358.242 312.026C359.346 312.406 360.428 312.786 361.489 313.166C362.178 313.41 362.852 313.66 363.518 313.904C364.493 314.263 365.44 314.621 366.372 314.987C366.658 315.094 366.938 315.209 367.218 315.317C367.741 315.517 368.25 315.725 368.752 315.933C369.089 316.062 369.419 316.198 369.748 316.342C370.071 316.471 370.401 316.607 370.716 316.743C371.039 316.872 371.354 317.008 371.67 317.152C371.935 317.259 372.193 317.374 372.444 317.489C372.953 317.711 373.462 317.933 373.957 318.163C374.2 318.277 374.444 318.385 374.688 318.5L375.247 318.758C375.326 318.801 375.405 318.837 375.484 318.872C376.093 319.159 376.681 319.446 377.254 319.733C377.792 320.005 378.315 320.278 378.817 320.543C379.412 320.858 379.979 321.167 380.523 321.482C380.631 321.539 380.739 321.604 380.846 321.661C381.212 321.869 381.563 322.084 381.914 322.292C382.603 322.715 383.255 323.131 383.864 323.547C384.466 323.962 385.026 324.371 385.549 324.78C385.549 324.787 385.549 324.787 385.556 324.787C385.807 324.988 386.051 325.188 386.28 325.382C386.653 325.705 386.997 326.013 387.313 326.328C387.418 326.426 387.519 326.529 387.614 326.637C387.655 326.671 387.694 326.71 387.728 326.751C387.879 326.916 388.03 327.081 388.173 327.246C388.345 327.447 388.503 327.647 388.653 327.848C388.725 327.948 388.804 328.049 388.868 328.149C388.954 328.271 389.04 328.4 389.112 328.522C389.177 328.622 389.234 328.73 389.291 328.83C389.443 329.089 389.573 329.36 389.678 329.64C389.757 329.831 389.822 330.028 389.872 330.228C389.926 330.419 389.967 330.613 389.994 330.809Z" fill="black"/>
</g>
<defs>
<clipPath id="clip0_32_81">
<rect width="564.08" height="410.258" fill="white"/>
</clipPath>
</defs>
</svg>
