<svg width="66" height="66" viewBox="0 0 66 66" fill="none" xmlns="http://www.w3.org/2000/svg">
<path d="M11.6152 0.989233H53.5943C55.1063 0.987771 56.6037 1.29213 58.0009 1.8849C59.398 2.47767 60.6675 3.3472 61.7366 4.44374C62.8057 5.54028 63.6535 6.84229 64.2315 8.27527C64.8094 9.70824 65.1062 11.244 65.1047 12.7948V54.1837C65.1062 55.7344 64.8094 57.2702 64.2315 58.7032C63.6535 60.1362 62.8057 61.4382 61.7366 62.5347C60.6675 63.6312 59.398 64.5008 58.0009 65.0936C56.6037 65.6863 55.1063 65.9907 53.5943 65.9892H11.6152C10.1032 65.9907 8.60578 65.6863 7.20863 65.0936C5.81148 64.5008 4.54201 63.6312 3.47289 62.5347C2.40376 61.4382 1.55597 60.1362 0.978017 58.7032C0.40007 57.2702 0.103316 55.7344 0.104741 54.1837V12.7948C0.103316 11.244 0.40007 9.70824 0.978017 8.27527C1.55597 6.84229 2.40376 5.54028 3.47289 4.44374C4.54201 3.3472 5.81148 2.47767 7.20863 1.8849C8.60578 1.29213 10.1032 0.987771 11.6152 0.989233Z" fill="#F16529"/>
<path d="M22.5296 20.4763H32.6261V13.3392H14.7297L14.9005 15.2539L16.6547 34.9218H32.6261V27.7847H23.1819L22.5296 20.4763ZM24.1382 38.4904H16.9736L17.9734 49.6966L32.5932 53.7549L32.6261 53.746V46.3204L32.5948 46.3287L24.6463 44.1825L24.1382 38.4904Z" fill="#EBEBEB"/>
<path d="M32.6015 34.9218H41.39L40.5614 44.178L32.6013 46.3265V53.7516L47.2327 49.6966L47.34 48.4908L49.0174 29.7012L49.1915 27.7847H32.6015V34.9218ZM32.6015 20.4588V20.4763H49.8409L49.9839 18.8722L50.3093 15.2539L50.4798 13.3392H32.6015V20.4591V20.4588Z" fill="white"/>
</svg>
