<svg width="66" height="66" viewBox="0 0 66 66" fill="none" xmlns="http://www.w3.org/2000/svg">
<path d="M11.6152 0.989171H53.5943C55.1063 0.98771 56.6037 1.29207 58.0009 1.88484C59.398 2.47761 60.6675 3.34714 61.7366 4.44368C62.8057 5.54022 63.6535 6.84223 64.2315 8.27521C64.8094 9.70818 65.1062 11.244 65.1047 12.7947V54.1836C65.1062 55.7343 64.8094 57.2701 64.2315 58.7031C63.6535 60.1361 62.8057 61.4381 61.7366 62.5347C60.6675 63.6312 59.398 64.5007 58.0009 65.0935C56.6037 65.6863 55.1063 65.9906 53.5943 65.9892H11.6152C10.1032 65.9906 8.60578 65.6863 7.20863 65.0935C5.81148 64.5007 4.54201 63.6312 3.47289 62.5347C2.40376 61.4381 1.55597 60.1361 0.978017 58.7031C0.40007 57.2701 0.103316 55.7343 0.104741 54.1836V12.7947C0.103316 11.244 0.40007 9.70818 0.978017 8.27521C1.55597 6.84223 2.40376 5.54022 3.47289 4.44368C4.54201 3.34714 5.81148 2.47761 7.20863 1.88484C8.60578 1.29207 10.1032 0.98771 11.6152 0.989171Z" fill="#F7DF1E"/>
<path d="M43.8787 51.8491C45.188 53.9869 46.8914 55.5582 49.9041 55.5582C52.4349 55.5582 54.0517 54.2933 54.0517 52.5455C54.0517 50.4511 52.3906 49.7093 49.6049 48.4908L48.0779 47.8356C43.6703 45.9578 40.7422 43.6054 40.7422 38.6324C40.7422 34.0515 44.2326 30.5642 49.6874 30.5642C53.5709 30.5642 56.3628 31.9158 58.3747 35.4547L53.6184 38.5086C52.5711 36.6308 51.4414 35.8911 49.6874 35.8911C47.8984 35.8911 46.7645 37.026 46.7645 38.5086C46.7645 40.341 47.8994 41.0828 50.52 42.2177L52.047 42.8719C57.2367 45.0974 60.1668 47.3662 60.1668 52.4671C60.1668 57.9663 55.8469 60.979 50.0454 60.979C44.3729 60.979 40.7081 58.2758 38.915 54.7328L43.8787 51.8491ZM22.3018 52.3784C23.2613 54.0808 24.1342 55.5201 26.2328 55.5201C28.2395 55.5201 29.5055 54.7349 29.5055 51.682V30.9129H35.6134V51.7645C35.6134 58.0891 31.9053 60.9677 26.4928 60.9677C21.6023 60.9677 18.7701 58.4368 17.3298 55.3885L22.3018 52.3784Z" fill="black"/>
</svg>
