<svg width="143" height="57" viewBox="0 0 143 57" fill="none" xmlns="http://www.w3.org/2000/svg">
<g filter="url(#filter0_d_43_7)">
<path d="M20.7402 21.9869C22.5569 20.9681 24.7716 20.9629 26.593 21.9731L37.4952 28.0203C41.627 30.312 41.6184 36.2563 37.48 38.5361L26.5052 44.5822C24.7314 45.5595 22.5846 45.5772 20.7948 44.6295L9.74089 38.7761C5.53703 36.55 5.46475 30.5534 9.61374 28.2266L20.7402 21.9869Z" fill="black"/>
</g>
<g filter="url(#filter1_d_43_7)">
<path d="M20.7412 12.0315C22.5578 11.0127 24.7726 11.0076 26.5939 12.0178L37.4962 18.0649C41.6279 20.3567 41.6194 26.301 37.481 28.5808L26.5062 34.6269C24.7324 35.6041 22.5856 35.6219 20.7958 34.6742L9.74187 28.8208C5.53801 26.5947 5.46573 20.5981 9.61471 18.2713L20.7412 12.0315Z" fill="#1882FF"/>
</g>
<path d="M131.402 37.761C130.817 37.761 130.342 37.2862 130.342 36.7006V21.8556C130.342 21.27 130.817 20.7953 131.402 20.7953H136.837C138.063 20.7953 139.082 20.9886 139.894 21.3752C140.711 21.7562 141.321 22.2781 141.724 22.9409C142.133 23.6036 142.337 24.3547 142.337 25.1941C142.337 25.8844 142.205 26.4754 141.94 26.9669C141.675 27.4529 141.318 27.8478 140.871 28.1515C140.444 28.4418 139.968 28.6539 139.445 28.7878C139.402 28.7988 139.372 28.8371 139.372 28.8812C139.372 28.9319 139.411 28.9737 139.462 28.9777C140.031 29.0237 140.578 29.2066 141.103 29.5266C141.661 29.858 142.116 30.3274 142.47 30.9349C142.823 31.5424 143 32.2769 143 33.1385C143 34.0166 142.787 34.8063 142.362 35.5077C141.937 36.2036 141.296 36.7531 140.44 37.1562C139.584 37.5594 138.507 37.761 137.209 37.761H131.402ZM133.415 34.1326C133.415 34.7182 133.89 35.1929 134.476 35.1929H136.721C137.836 35.1929 138.64 34.9803 139.131 34.5551C139.628 34.1243 139.877 33.572 139.877 32.8982C139.877 32.3957 139.753 31.9428 139.504 31.5397C139.256 31.131 138.902 30.8107 138.444 30.5787C137.985 30.3412 137.439 30.2225 136.804 30.2225H134.476C133.89 30.2225 133.415 30.6972 133.415 31.2829V34.1326ZM133.415 26.9503C133.415 27.5359 133.89 28.0107 134.476 28.0107H136.456C136.986 28.0107 137.464 27.914 137.889 27.7207C138.314 27.5219 138.648 27.243 138.891 26.884C139.14 26.5195 139.264 26.0888 139.264 25.5917C139.264 24.9345 139.032 24.3933 138.568 23.9681C138.11 23.5428 137.428 23.3302 136.522 23.3302H134.476C133.89 23.3302 133.415 23.8049 133.415 24.3906V26.9503Z" fill="#0F73FF"/>
<path d="M115.882 37.0378C115.737 37.4698 115.333 37.761 114.877 37.761H113.857C113.126 37.761 112.614 37.0382 112.857 36.3485L118.083 21.5035C118.232 21.0792 118.633 20.7953 119.083 20.7953H121.376C121.825 20.7953 122.226 21.079 122.376 21.5031L127.609 36.3481C127.852 37.0379 127.341 37.761 126.609 37.761H125.589C125.134 37.761 124.729 37.4701 124.584 37.0383L120.317 24.3374C120.304 24.2999 120.269 24.2746 120.229 24.2746C120.19 24.2746 120.154 24.2999 120.142 24.3374L115.882 37.0378ZM115.748 32.1693C115.748 31.5836 116.222 31.1089 116.808 31.1089H123.634C124.22 31.1089 124.694 31.5836 124.694 32.1693V32.5172C124.694 33.1028 124.22 33.5775 123.634 33.5775H116.808C116.222 33.5775 115.748 33.1028 115.748 32.5172V32.1693Z" fill="#0F73FF"/>
<path d="M100.671 37.761C100.085 37.761 99.6104 37.2862 99.6104 36.7006V21.8556C99.6104 21.27 100.085 20.7953 100.671 20.7953H101.623C102.209 20.7953 102.684 21.27 102.684 21.8556V34.1243C102.684 34.7099 103.158 35.1846 103.744 35.1846H109.096C109.681 35.1846 110.156 35.6594 110.156 36.245V36.7006C110.156 37.2862 109.681 37.761 109.096 37.761H100.671Z" fill="#0F73FF"/>
<path d="M95.9095 25.0367C96.4951 25.0367 96.9698 25.5114 96.9698 26.097V26.2959C96.9698 26.8815 96.4951 27.3562 95.9095 27.3562H90.7154C90.1298 27.3562 89.655 26.8815 89.655 26.2959V26.097C89.655 25.5114 90.1298 25.0367 90.7154 25.0367H95.9095ZM91.4609 23.0485C91.4609 22.4629 91.9357 21.9882 92.5213 21.9882H93.3994C93.985 21.9882 94.4598 22.4629 94.4598 23.0485V33.9337C94.4598 34.3369 94.5205 34.6461 94.642 34.8615C94.769 35.0714 94.9347 35.215 95.1391 35.2923C95.3434 35.3696 95.5698 35.4083 95.8183 35.4083C96.0061 35.4083 96.1773 35.3945 96.332 35.3669C96.5316 35.3324 96.7322 35.4581 96.7749 35.6561L97.0518 36.941C97.1374 37.338 96.9106 37.7308 96.5142 37.8189C96.2215 37.8852 95.8625 37.9239 95.4373 37.9349C94.6862 37.957 94.0097 37.8438 93.4077 37.5953C92.8057 37.3412 92.328 36.9491 91.9746 36.4189C91.6266 35.8888 91.4554 35.226 91.4609 34.4308V23.0485Z" fill="#373737"/>
<path d="M87.2071 25.0367C87.7928 25.0367 88.2675 25.5114 88.2675 26.097V26.2959C88.2675 26.8815 87.7928 27.3562 87.2071 27.3562H81.806C81.2203 27.3562 80.7456 26.8815 80.7456 26.2959V26.097C80.7456 25.5114 81.2203 25.0367 81.806 25.0367H87.2071ZM83.6864 37.7609C83.1008 37.7609 82.6261 37.2862 82.6261 36.7006V23.8355C82.6261 22.9795 82.8028 22.2671 83.1563 21.6982C83.5152 21.1294 83.9957 20.7041 84.5977 20.4225C85.1996 20.1408 85.8679 20 86.6024 20C87.1215 20 87.5827 20.0414 87.9858 20.1243C88.4961 20.2291 88.7805 20.7371 88.6507 21.2416L88.4072 22.1886C88.3401 22.4496 88.0679 22.6043 87.8036 22.5515C87.6103 22.5073 87.3949 22.4852 87.1574 22.4852C86.5996 22.4852 86.2048 22.6205 85.9728 22.8911C85.7464 23.1562 85.6332 23.5373 85.6332 24.0343V36.7006C85.6332 37.2862 85.1584 37.7609 84.5728 37.7609H83.6864Z" fill="#373737"/>
<path d="M73.1803 38.0094C71.9377 38.0094 70.8608 37.7361 69.9495 37.1893C69.0383 36.6426 68.3314 35.8777 67.8288 34.8946C67.3318 33.9116 67.0833 32.7629 67.0833 31.4485C67.0833 30.1341 67.3318 28.9826 67.8288 27.994C68.3314 27.0055 69.0383 26.2378 69.9495 25.6911C70.8608 25.1443 71.9377 24.871 73.1803 24.871C74.4229 24.871 75.4998 25.1443 76.4111 25.6911C77.3223 26.2378 78.0264 27.0055 78.5235 27.994C79.0261 28.9826 79.2773 30.1341 79.2773 31.4485C79.2773 32.7629 79.0261 33.9116 78.5235 34.8946C78.0264 35.8777 77.3223 36.6426 76.4111 37.1893C75.4998 37.7361 74.4229 38.0094 73.1803 38.0094ZM73.1969 35.6071C73.8706 35.6071 74.4339 35.4221 74.8868 35.052C75.3397 34.6765 75.6765 34.1739 75.8975 33.5443C76.1239 32.9148 76.2371 32.2134 76.2371 31.4402C76.2371 30.6615 76.1239 29.9574 75.8975 29.3278C75.6765 28.6927 75.3397 28.1873 74.8868 27.8118C74.4339 27.4363 73.8706 27.2485 73.1969 27.2485C72.5065 27.2485 71.9322 27.4363 71.4738 27.8118C71.0209 28.1873 70.6813 28.6927 70.4548 29.3278C70.2339 29.9574 70.1235 30.6615 70.1235 31.4402C70.1235 32.2134 70.2339 32.9148 70.4548 33.5443C70.6813 34.1739 71.0209 34.6765 71.4738 35.052C71.9322 35.4221 72.5065 35.6071 73.1969 35.6071Z" fill="#373737"/>
<path d="M62.7862 25.4592C62.2442 25.4592 61.8198 25.0287 61.5628 24.5515C61.3979 24.2452 61.1621 23.9844 60.8556 23.7693C60.2868 23.3661 59.5467 23.1645 58.6355 23.1645C57.9949 23.1645 57.4454 23.2612 56.987 23.4545C56.5286 23.6478 56.1779 23.9101 55.9349 24.2415C55.6919 24.5728 55.5677 24.9511 55.5621 25.3764C55.5621 25.7298 55.6422 26.0363 55.8024 26.2959C55.968 26.5555 56.1917 26.7764 56.4734 26.9586C56.755 27.1353 57.0671 27.2845 57.4095 27.406C57.7519 27.5275 58.097 27.6296 58.445 27.7125L60.0355 28.1101C60.6761 28.2592 61.2919 28.4608 61.8828 28.7148C62.4793 28.9689 63.0122 29.2892 63.4817 29.6758C63.9566 30.0624 64.3321 30.529 64.6083 31.0758C64.8844 31.6225 65.0225 32.2632 65.0225 32.9977C65.0225 33.9918 64.7684 34.8671 64.2604 35.6237C63.7523 36.3748 63.0178 36.963 62.0568 37.3882C61.1014 37.8079 59.9444 38.0178 58.5858 38.0178C57.2659 38.0178 56.1199 37.8135 55.1479 37.4048C54.1815 36.9961 53.4249 36.3996 52.8781 35.6154C52.5216 35.0988 52.2729 34.5079 52.132 33.8427C52.0074 33.2538 52.5008 32.7492 53.1028 32.7492H54.0396C54.5946 32.7492 55.0259 33.1943 55.2506 33.7017C55.3349 33.8918 55.4414 34.0658 55.5704 34.2237C55.8907 34.6158 56.3077 34.9085 56.8213 35.1018C57.3404 35.2951 57.9203 35.3918 58.5609 35.3918C59.2292 35.3918 59.8146 35.2923 60.3172 35.0935C60.8252 34.8892 61.2229 34.6075 61.5101 34.2486C61.7972 33.8841 61.9436 33.4588 61.9491 32.9728C61.9436 32.531 61.8138 32.1665 61.5598 31.8793C61.3057 31.5866 60.9495 31.3436 60.4911 31.1503C60.0383 30.9515 59.5081 30.7748 58.9006 30.6202L56.9704 30.1231C55.5732 29.7641 54.4686 29.2202 53.6568 28.4912C52.8505 27.7566 52.4473 26.7819 52.4473 25.5669C52.4473 24.5673 52.7179 23.692 53.2592 22.9409C53.8059 22.1898 54.5487 21.6071 55.4876 21.1929C56.4264 20.7732 57.4895 20.5634 58.6769 20.5634C59.8809 20.5634 60.9357 20.7732 61.8414 21.1929C62.7527 21.6071 63.4678 22.1843 63.987 22.9243C64.3035 23.3721 64.5266 23.861 64.6563 24.3909C64.7972 24.9667 64.3044 25.4592 63.7116 25.4592H62.7862Z" fill="#373737"/>
<g filter="url(#filter2_f_43_7)">
<path d="M11.9993 19.5001L23.9999 13.0002L37.4995 20.5L24.9999 27.0001L11.9993 19.5001Z" fill="url(#paint0_linear_43_7)"/>
</g>
<g filter="url(#filter3_f_43_7)">
<path d="M23.4048 40.8703L38.6953 32.0001L38.6958 35.9994L23.6965 43.9994L23.4048 40.8703Z" fill="url(#paint1_linear_43_7)"/>
</g>
<defs>
<filter id="filter0_d_43_7" x="3.04609" y="21.2191" width="41.0411" height="31.1055" filterUnits="userSpaceOnUse" color-interpolation-filters="sRGB">
<feFlood flood-opacity="0" result="BackgroundImageFix"/>
<feColorMatrix in="SourceAlpha" type="matrix" values="0 0 0 0 0 0 0 0 0 0 0 0 0 0 0 0 0 0 127 0" result="hardAlpha"/>
<feOffset dy="3.49835"/>
<feGaussianBlur stdDeviation="1.74917"/>
<feComposite in2="hardAlpha" operator="out"/>
<feColorMatrix type="matrix" values="0 0 0 0 0.716667 0 0 0 0 0.716667 0 0 0 0 0.716667 0 0 0 1 0"/>
<feBlend mode="normal" in2="BackgroundImageFix" result="effect1_dropShadow_43_7"/>
<feBlend mode="normal" in="SourceGraphic" in2="effect1_dropShadow_43_7" result="shape"/>
</filter>
<filter id="filter1_d_43_7" x="3.04706" y="11.2638" width="41.0411" height="31.1055" filterUnits="userSpaceOnUse" color-interpolation-filters="sRGB">
<feFlood flood-opacity="0" result="BackgroundImageFix"/>
<feColorMatrix in="SourceAlpha" type="matrix" values="0 0 0 0 0 0 0 0 0 0 0 0 0 0 0 0 0 0 127 0" result="hardAlpha"/>
<feOffset dy="3.49835"/>
<feGaussianBlur stdDeviation="1.74917"/>
<feComposite in2="hardAlpha" operator="out"/>
<feColorMatrix type="matrix" values="0 0 0 0 0.360784 0 0 0 0 0 0 0 0 0 1 0 0 0 0.28 0"/>
<feBlend mode="normal" in2="BackgroundImageFix" result="effect1_dropShadow_43_7"/>
<feBlend mode="normal" in="SourceGraphic" in2="effect1_dropShadow_43_7" result="shape"/>
</filter>
<filter id="filter2_f_43_7" x="8.99927" y="10.0002" width="31.5002" height="19.9999" filterUnits="userSpaceOnUse" color-interpolation-filters="sRGB">
<feFlood flood-opacity="0" result="BackgroundImageFix"/>
<feBlend mode="normal" in="SourceGraphic" in2="BackgroundImageFix" result="shape"/>
<feGaussianBlur stdDeviation="1.5" result="effect1_foregroundBlur_43_7"/>
</filter>
<filter id="filter3_f_43_7" x="20.4048" y="29.0001" width="21.291" height="17.9993" filterUnits="userSpaceOnUse" color-interpolation-filters="sRGB">
<feFlood flood-opacity="0" result="BackgroundImageFix"/>
<feBlend mode="normal" in="SourceGraphic" in2="BackgroundImageFix" result="shape"/>
<feGaussianBlur stdDeviation="1.5" result="effect1_foregroundBlur_43_7"/>
</filter>
<linearGradient id="paint0_linear_43_7" x1="20.6743" y1="14.6733" x2="26.443" y2="26.1381" gradientUnits="userSpaceOnUse">
<stop stop-color="white"/>
<stop offset="1" stop-color="#D9D9D9" stop-opacity="0"/>
</linearGradient>
<linearGradient id="paint1_linear_43_7" x1="32.2106" y1="35.7356" x2="34.4019" y2="39.9073" gradientUnits="userSpaceOnUse">
<stop stop-color="#D9D9D9"/>
<stop offset="1" stop-color="#D9D9D9" stop-opacity="0"/>
</linearGradient>
</defs>
</svg>
