<svg width="66" height="65" viewBox="0 0 66 65" fill="none" xmlns="http://www.w3.org/2000/svg">
<path d="M11.7443 5.2391e-06H53.7235C55.2354 -0.00145634 56.7328 0.302906 58.13 0.895673C59.5271 1.48844 60.7966 2.35797 61.8657 3.45451C62.9349 4.55105 63.7827 5.85307 64.3606 7.28604C64.9386 8.71902 65.2353 10.2548 65.2339 11.8056V53.1944C65.2353 54.7452 64.9386 56.281 64.3606 57.714C63.7827 59.1469 62.9349 60.4489 61.8657 61.5455C60.7966 62.642 59.5271 63.5116 58.13 64.1043C56.7328 64.6971 55.2354 65.0015 53.7235 65H11.7443C10.2323 65.0015 8.73493 64.6971 7.33778 64.1043C5.94063 63.5116 4.67116 62.642 3.60204 61.5455C2.53291 60.4489 1.68512 59.1469 1.10717 57.714C0.52922 56.281 0.232467 54.7452 0.233892 53.1944V11.8056C0.232467 10.2548 0.52922 8.71902 1.10717 7.28604C1.68512 5.85307 2.53291 4.55105 3.60204 3.45451C4.67116 2.35797 5.94063 1.48844 7.33778 0.895673C8.73493 0.302906 10.2323 -0.00145634 11.7443 5.2391e-06Z" fill="#E0E0E0"/>
<g clip-path="url(#clip0_32_357)">
<path d="M38.3679 11.375L32.7383 21.1266L27.1087 11.375H8.36328L32.7383 53.5948L57.1133 11.375H38.3679Z" fill="#4DBA87"/>
<path d="M38.368 11.375L32.7384 21.1266L27.1088 11.375H18.115L32.7384 36.7061L47.3618 11.375H38.368Z" fill="#425466"/>
</g>
<defs>
<clipPath id="clip0_32_357">
<rect width="48.75" height="42.2198" fill="white" transform="translate(8.36328 11.375)"/>
</clipPath>
</defs>
</svg>
