<?xml version="1.0" encoding="UTF-8"?><!DOCTYPE svg PUBLIC "-//W3C//DTD SVG 1.1//EN" "http://www.w3.org/Graphics/SVG/1.1/DTD/svg11.dtd"><svg xmlns="http://www.w3.org/2000/svg" xmlns:xlink="http://www.w3.org/1999/xlink"><defs>
        <clipPath id="a">
            <path d="M0 0h419.967v395H0z"/>
        </clipPath>
    
        <clipPath id="a">
            <path d="M0 0h564.08v410.258H0z"/>
        </clipPath>
    
        <filter id="a" x="3.046" y="21.219" width="41.041" height="31.105" filterUnits="userSpaceOnUse" color-interpolation-filters="sRGB">
            <feFlood flood-opacity="0" result="BackgroundImageFix"/>
            <feColorMatrix in="SourceAlpha" values="0 0 0 0 0 0 0 0 0 0 0 0 0 0 0 0 0 0 127 0" result="hardAlpha"/>
            <feOffset dy="3.498"/>
            <feGaussianBlur stdDeviation="1.749"/>
            <feComposite in2="hardAlpha" operator="out"/>
            <feColorMatrix values="0 0 0 0 0.716667 0 0 0 0 0.716667 0 0 0 0 0.716667 0 0 0 1 0"/>
            <feBlend in2="BackgroundImageFix" result="effect1_dropShadow_43_7"/>
            <feBlend in="SourceGraphic" in2="effect1_dropShadow_43_7" result="shape"/>
        </filter>
        <filter id="b" x="3.047" y="11.264" width="41.041" height="31.105" filterUnits="userSpaceOnUse" color-interpolation-filters="sRGB">
            <feFlood flood-opacity="0" result="BackgroundImageFix"/>
            <feColorMatrix in="SourceAlpha" values="0 0 0 0 0 0 0 0 0 0 0 0 0 0 0 0 0 0 127 0" result="hardAlpha"/>
            <feOffset dy="3.498"/>
            <feGaussianBlur stdDeviation="1.749"/>
            <feComposite in2="hardAlpha" operator="out"/>
            <feColorMatrix values="0 0 0 0 0.360784 0 0 0 0 0 0 0 0 0 1 0 0 0 0.28 0"/>
            <feBlend in2="BackgroundImageFix" result="effect1_dropShadow_43_7"/>
            <feBlend in="SourceGraphic" in2="effect1_dropShadow_43_7" result="shape"/>
        </filter>
        <filter id="c" x="8.999" y="10" width="31.5" height="20" filterUnits="userSpaceOnUse" color-interpolation-filters="sRGB">
            <feFlood flood-opacity="0" result="BackgroundImageFix"/>
            <feBlend in="SourceGraphic" in2="BackgroundImageFix" result="shape"/>
            <feGaussianBlur stdDeviation="1.5" result="effect1_foregroundBlur_43_7"/>
        </filter>
        <filter id="d" x="20.405" y="29" width="21.291" height="17.999" filterUnits="userSpaceOnUse" color-interpolation-filters="sRGB">
            <feFlood flood-opacity="0" result="BackgroundImageFix"/>
            <feBlend in="SourceGraphic" in2="BackgroundImageFix" result="shape"/>
            <feGaussianBlur stdDeviation="1.5" result="effect1_foregroundBlur_43_7"/>
        </filter>
    
        <clipPath id="a">
            <path transform="translate(8.363 11.375)" d="M0 0h48.75v42.22H0z"/>
        </clipPath>
    </defs><symbol id="icon-Gmail" viewBox="0 0 24 24">
    <path d="M5.856 6.84a.75.75 0 0 0-1.106.66V17a.75.75 0 0 0 1.5 0V8.756l5.395 2.904c.222.12.489.12.71 0l5.395-2.904V17a.75.75 0 0 0 1.5 0V7.5a.75.75 0 0 0-1.105-.66L12 10.148 5.856 6.84z"/>
    <path fill-rule="evenodd" clip-rule="evenodd" d="M17.31 3.722a59.632 59.632 0 0 0-10.62 0l-1.518.135a3.53 3.53 0 0 0-3.179 3.006 35.508 35.508 0 0 0 0 10.274 3.53 3.53 0 0 0 3.18 3.005l1.517.136c3.533.316 7.087.316 10.62 0l1.518-.136a3.53 3.53 0 0 0 3.18-3.005 35.508 35.508 0 0 0 0-10.274 3.53 3.53 0 0 0-3.18-3.006l-1.517-.135zM6.824 5.216a58.132 58.132 0 0 1 10.354 0l1.518.136a2.03 2.03 0 0 1 1.828 1.728 34.005 34.005 0 0 1 0 9.84 2.03 2.03 0 0 1-1.828 1.728l-1.518.136c-3.444.308-6.91.308-10.354 0l-1.517-.136a2.03 2.03 0 0 1-1.829-1.728 34.008 34.008 0 0 1 0-9.84 2.03 2.03 0 0 1 1.829-1.728l1.517-.136z"/>
</symbol><symbol id="icon-Instagram" viewBox="0 0 24 24">
    <path d="M16 7a1 1 0 1 1 2 0 1 1 0 0 1-2 0z"/>
    <path fill-rule="evenodd" clip-rule="evenodd" d="M12 7.25a4.75 4.75 0 1 0 0 9.5 4.75 4.75 0 0 0 0-9.5zM8.75 12a3.25 3.25 0 1 1 6.5 0 3.25 3.25 0 0 1-6.5 0z"/>
    <path fill-rule="evenodd" clip-rule="evenodd" d="M17.258 2.833a47.721 47.721 0 0 0-10.516 0c-2.012.225-3.637 1.81-3.873 3.832a45.922 45.922 0 0 0 0 10.67c.236 2.022 1.86 3.607 3.873 3.832 3.466.387 7.05.387 10.516 0 2.012-.225 3.637-1.81 3.873-3.832a45.914 45.914 0 0 0 0-10.67c-.236-2.022-1.86-3.607-3.873-3.832zm-10.35 1.49a46.22 46.22 0 0 1 10.184 0c1.33.15 2.395 1.199 2.55 2.517a44.421 44.421 0 0 1 0 10.32c-.155 1.318-1.22 2.368-2.55 2.516a46.217 46.217 0 0 1-10.184 0c-1.33-.148-2.395-1.198-2.55-2.516a44.421 44.421 0 0 1 0-10.32c.155-1.318 1.22-2.368 2.55-2.516z"/>
</symbol><symbol id="icon-Linkedin" viewBox="0 0 24 24">
    <path fill-rule="evenodd" clip-rule="evenodd" d="M5 1.25a2.75 2.75 0 1 0 0 5.5 2.75 2.75 0 0 0 0-5.5zM3.75 4a1.25 1.25 0 1 1 2.5 0 1.25 1.25 0 0 1-2.5 0z"/>
    <path fill-rule="evenodd" clip-rule="evenodd" d="M2.25 8A.75.75 0 0 1 3 7.25h4a.75.75 0 0 1 .75.75v13a.75.75 0 0 1-.75.75H3a.75.75 0 0 1-.75-.75V8zm1.5.75v11.5h2.5V8.75h-2.5z"/>
    <path fill-rule="evenodd" clip-rule="evenodd" d="M9.25 8a.75.75 0 0 1 .75-.75h4a.75.75 0 0 1 .75.75v.434l.435-.187a7.792 7.792 0 0 1 2.358-.595C20.318 7.4 22.75 9.58 22.75 12.38V21a.75.75 0 0 1-.75.75h-4a.75.75 0 0 1-.75-.75v-7a1.25 1.25 0 0 0-2.5 0v7a.75.75 0 0 1-.75.75h-4a.75.75 0 0 1-.75-.75V8zm1.5.75v11.5h2.5V14a2.75 2.75 0 1 1 5.5 0v6.25h2.5v-7.87c0-1.904-1.661-3.408-3.57-3.234-.655.06-1.302.222-1.904.48l-1.48.635a.75.75 0 0 1-1.046-.69V8.75h-2.5z"/>
</symbol><symbol id="icon-Telegram" viewBox="0 0 24 24">
    <path fill-rule="evenodd" clip-rule="evenodd" d="M5.788 14.02a.746.746 0 0 0 .132.031 456.056 456.056 0 0 1 .844 2.002c.503 1.202 1.01 2.44 1.121 2.796.139.438.285.736.445.94.083.104.178.196.29.266a.88.88 0 0 0 .186.088c.32.12.612.07.795.009a1.313 1.313 0 0 0 .304-.15L9.91 20l2.826-1.762 3.265 2.502c.048.037.1.068.156.093.392.17.772.23 1.13.182.356-.05.639-.199.85-.368a1.992 1.992 0 0 0 .564-.728l.009-.022.003-.008.002-.004v-.002l.001-.001a.756.756 0 0 0 .04-.133l2.98-15.025a.752.752 0 0 0 .014-.146c0-.44-.166-.859-.555-1.112-.334-.217-.705-.227-.94-.209-.252.02-.486.082-.643.132a3.458 3.458 0 0 0-.26.094l-.011.005-16.714 6.556-.002.001a2.296 2.296 0 0 0-.167.069 2.522 2.522 0 0 0-.38.212c-.227.155-.75.581-.661 1.285.07.56.454.905.689 1.071.128.091.25.156.34.199.04.02.126.054.163.07l.01.003 3.169 1.067zm14.138-9.152h-.002a.785.785 0 0 1-.026.011L3.164 11.444a.818.818 0 0 1-.026.01l-.01.003a1.126 1.126 0 0 0-.09.04.851.851 0 0 0 .086.043l3.142 1.058a.75.75 0 0 1 .16.076l10.377-6.075.01-.005a1.59 1.59 0 0 1 .124-.068c.072-.037.187-.091.317-.131.09-.028.357-.107.645-.014a.854.854 0 0 1 .588.689.84.84 0 0 1 .003.424c-.07.275-.262.489-.438.653-.15.14-2.095 2.016-4.014 3.868l-2.613 2.52-.465.45 5.872 4.502a.536.536 0 0 0 .251.04.229.229 0 0 0 .117-.052.495.495 0 0 0 .103-.12l.002-.001 2.89-14.573a1.858 1.858 0 0 0-.267.086h-.002zm-8.461 12.394l-1.172-.898-.284 1.805 1.456-.907zm-2.247-2.68l1.165-1.125 2.613-2.522.973-.938-6.52 3.817.035.082a339.2 339.2 0 0 1 1.22 2.92l.283-1.8a.747.747 0 0 1 .231-.435z"/>
</symbol><symbol id="icon-about" viewBox="0 0 420 395">
    <g clip-path="url(#a)">
        <path d="M336.578 305.883a17.294 17.294 0 0 1-15.975-10.674 17.289 17.289 0 0 1 12.602-23.576 17.29 17.29 0 0 1 20.664 16.959 17.308 17.308 0 0 1-17.291 17.291z"/>
        <path d="M344.558 287.927h-7.315v-8.313a.663.663 0 0 0-.665-.665.663.663 0 0 0-.665.665v8.313h-7.316a.665.665 0 0 0 0 1.33h7.316v8.313a.665.665 0 1 0 1.33 0v-8.313h7.315a.665.665 0 1 0 0-1.33z"/>
        <path d="M403.166 386.912l-7.603-.001-3.615-29.326 11.221.001-.003 29.326z"/>
        <path d="M390.133 384.738h14.662v9.233H380.9a9.229 9.229 0 0 1 5.7-8.53 9.229 9.229 0 0 1 3.533-.703z"/>
        <path d="M372.907 386.912l-7.603-.001-3.616-29.326 11.221.001-.002 29.326z"/>
        <path d="M359.873 384.738h14.663v9.233h-23.895a9.228 9.228 0 0 1 9.232-9.233z"/>
        <path d="M409.023 285.525a6.23 6.23 0 0 1-1.554-5.043 6.226 6.226 0 0 1 2.868-4.429l-2.354-14.055 8.192-3.514 3.046 19.895a6.266 6.266 0 0 1-1.925 8.102 6.27 6.27 0 0 1-8.273-.956z"/>
        <path d="M344.887 278.884a6.24 6.24 0 0 0 .269-9.559l4.644-13.473-7.499-4.819-6.291 19.118a6.272 6.272 0 0 0 .56 8.309 6.273 6.273 0 0 0 8.317.424z"/>
        <path d="M383.826 179.632c9.021 0 16.335-7.313 16.335-16.334s-7.314-16.334-16.335-16.334-16.334 7.313-16.334 16.334 7.313 16.334 16.334 16.334z"/>
        <path d="M344.382 268.804c-.28 0-.559-.039-.828-.117l-4.761-1.367a3 3 0 0 1-2.054-3.692l9.826-34.69 13.701-33.635c1.363-3.344 4.209-5.537 7.429-5.723a7.61 7.61 0 0 1 7.168 4.175 10.392 10.392 0 0 1 .237 9.158l-15.573 34.057-12.381 29.983a2.993 2.993 0 0 1-2.764 1.851z"/>
        <path d="M393.044 176.996l-9.076.161a6.027 6.027 0 0 1-4.906-2.359 6.036 6.036 0 0 1-1.01-5.348c.194-.657.34-1.326.436-2.004.102-.739.122-1.487.06-2.23a3.297 3.297 0 0 0-2.804-3.005 3.296 3.296 0 0 0-3.551 2.068c-1.526.022-4.777-.476-6.303-.454-3.24-8.306 3.821-19.175 11.422-23.258 7.748-4.162 17.807.072 20.777 8.747 4.122.074 7.471 4.139 8.003 8.716.531 4.577-1.352 9.356-4.232 12.863-2.881 3.508-6.662 6.065-8.816 6.103z"/>
        <path d="M363.211 384.174a2.998 2.998 0 0 1-1.99-.77 2.998 2.998 0 0 1-.977-1.897l-3.368-113.215 42.422 3.02.033.273c9.586 80.246 6.309 108.025 6.275 108.296a2.979 2.979 0 0 1-1.079 2.133 2.99 2.99 0 0 1-2.296.662l-9.375.224a2.986 2.986 0 0 1-1.856-.937 2.986 2.986 0 0 1-.797-1.92l-8.76-82a.934.934 0 0 0-.975-.702.977.977 0 0 0-.619.219.977.977 0 0 0-.338.563l-3.384 82.269a2.984 2.984 0 0 1-2.688 3.107l-9.931.66c-.098.01-.198.015-.297.015z"/>
        <path d="M380.814 281.82c-.254 0-.507-.004-.762-.012-12.198-.367-21.741-9.596-24.375-12.416a2.986 2.986 0 0 1-.72-2.725l7.038-29.77-1.868-25.882a25.524 25.524 0 0 1 6.987-19.708 21.052 21.052 0 0 1 16.218-6.561c11.875.567 21.243 11.181 21.328 24.163.131 20.108-.461 21.489-.655 21.943-5.927 13.831-2.69 33.245-1.557 38.867a2.998 2.998 0 0 1-.889 2.784c-6.518 6.185-13.494 9.316-20.745 9.317z"/>
        <path d="M411.449 274.252a2.99 2.99 0 0 1-2.913-2.324l-7.26-31.628-9.73-36.15a10.379 10.379 0 0 1 1.747-8.993 7.619 7.619 0 0 1 7.759-2.933c3.144.716 5.589 3.349 6.381 6.872l7.95 35.4 3.966 35.873a3 3 0 0 1-2.636 3.302l-4.921.561a3.02 3.02 0 0 1-.343.02z"/>
        <path d="M20.505 277.663a7.153 7.153 0 0 0 3.071-5.207 7.146 7.146 0 0 0-2.02-5.698l2.772-61.861-14.11 1.584.82 60.509a7.184 7.184 0 0 0 9.467 10.673z"/>
        <path d="M46.243 382.381l8.03 1.412 7.938-30.303-10.522-2.083-5.446 30.974z"/>
        <path d="M68.45 393.972l-25.238-4.437 1.714-9.751 15.487 2.722a9.9 9.9 0 0 1 8.037 11.466z"/>
        <path d="M24.203 386.4h8.153l3.879-31.449-12.034.001.002 31.448z"/>
        <path d="M48.08 393.971l-25.624.001v-9.901H38.18a9.902 9.902 0 0 1 9.901 9.9z"/>
        <path d="M58.887 377.789c-.128 0-.255-.008-.381-.023l-9.597-.79a3.247 3.247 0 0 1-2.821-3.763l8.861-49.667-5.987-31.573a1.085 1.085 0 0 0-1.117-.878 1.082 1.082 0 0 0-1.024.985l-7.486 84.213a3.272 3.272 0 0 1-3.465 2.951l-9.04-.336a3.252 3.252 0 0 1-3.018-3.08l-.607-100.933 46.873-5.859 3.275 50.571-.013.053-11.3 55.648a3.25 3.25 0 0 1-3.153 2.481z"/>
        <path d="M38.659 164.81c9.02 0 16.334-7.313 16.334-16.334 0-9.022-7.313-16.335-16.334-16.335s-16.334 7.313-16.334 16.335c0 9.021 7.313 16.334 16.334 16.334z"/>
        <path d="M54.05 282.272a13.377 13.377 0 0 1-7.22-2.066c-7.913-4.945-16.9-2.98-21.553-1.368a3.246 3.246 0 0 1-3.817-1.331 3.2 3.2 0 0 1-.469-1.351L12.53 200.59c-1.418-12.661 6.209-24.565 18.134-28.304.448-.141.904-.274 1.367-.4a26.321 26.321 0 0 1 21.928 3.806 26.733 26.733 0 0 1 11.417 19.521l7.123 76.073a3.198 3.198 0 0 1-1.016 2.665c-2.497 2.31-9.744 8.32-17.433 8.321z"/>
        <path d="M28.285 216.795l-19.09-2.099a3.8 3.8 0 0 1-2.717-1.625 3.806 3.806 0 0 1-.545-3.12l4.86-18.519a10.561 10.561 0 0 1 18.738-5.38 10.561 10.561 0 0 1 2.248 7.75l.721 19.07a3.801 3.801 0 0 1-4.215 3.923z"/>
        <path d="M72.422 275.014a7.146 7.146 0 0 0-.27-10.952l-4.703-61.744-13.826 3.112 8.116 60.13a7.182 7.182 0 0 0 10.683 9.454z"/>
        <path d="M48.323 212.913a3.799 3.799 0 0 1-1.21-2.926l.722-19.07a10.561 10.561 0 0 1 17.067-9.423 10.559 10.559 0 0 1 3.92 7.053l4.858 18.519a3.8 3.8 0 0 1-3.262 4.744l-19.09 2.099a3.797 3.797 0 0 1-3.005-.996z"/>
        <path d="M37.687 165.425c-.29 0-.58-.034-.862-.1l-.083-.02c-14.361-2.198-17.535-10.516-18.232-13.99-.721-3.597.1-7.068 1.955-8.417-1.011-3.194-.849-6.026.484-8.421 2.325-4.176 7.37-5.588 8.046-5.761 4.029-2.972 8.85-.988 9.727-.586 7.793-2.883 10.772-.483 11.31.053 3.484.625 5.608 1.971 6.313 4 1.324 3.812-2.864 8.553-3.043 8.753l-.093.103-6.238.297a4.235 4.235 0 0 0-3.878 3.111 4.231 4.231 0 0 0-.1 1.756c.17.755.383 1.5.64 2.231 1.065 3.33 1.863 6.174.833 7.255a1.67 1.67 0 0 1-1.746.303c-.975-.261-1.637-.206-1.967.163-.513.571-.356 2.018.44 4.073a3.819 3.819 0 0 1-.695 3.889 3.693 3.693 0 0 1-2.81 1.308z"/>
        <path d="M93.772 395H.665a.664.664 0 1 1 0-1.33h93.107a.664.664 0 1 1 0 1.33z"/>
        <path d="M418.316 395h-93.107a.665.665 0 0 1 0-1.33h93.107a.663.663 0 0 1 .47 1.135.661.661 0 0 1-.47.195z"/>
        <path d="M285.115 281.981H124.173a23.306 23.306 0 0 1-23.277-23.277V23.277A23.303 23.303 0 0 1 124.173 0h160.942a23.306 23.306 0 0 1 23.277 23.277v235.427a23.308 23.308 0 0 1-6.825 16.452 23.308 23.308 0 0 1-16.452 6.825z"/>
        <path d="M259.843 186.898H149.445c-11.277-.054-11.324-17.232.001-17.291h110.397c11.27.053 11.331 17.232 0 17.291z"/>
        <path d="M259.843 48.529H149.445c-11.277-.054-11.324-17.233.001-17.291h110.397c11.27.052 11.331 17.232 0 17.291z"/>
        <path d="M259.843 218.821H149.445c-11.277-.054-11.324-17.233.001-17.291h110.397c11.27.052 11.331 17.232 0 17.291z"/>
        <path d="M259.843 250.743H149.445c-11.277-.054-11.324-17.232.001-17.291h110.397c11.27.053 11.331 17.232 0 17.291z"/>
        <path d="M257.848 148.858H151.44a10.984 10.984 0 0 1-10.973-10.974V78.296a10.985 10.985 0 0 1 10.973-10.973h106.408a10.988 10.988 0 0 1 10.973 10.973v59.588a10.984 10.984 0 0 1-10.973 10.974z"/>
        <path d="M285.115 281.981H124.173a23.306 23.306 0 0 1-23.277-23.277V23.277A23.303 23.303 0 0 1 124.173 0h160.942a23.306 23.306 0 0 1 23.277 23.277v235.427a23.308 23.308 0 0 1-6.825 16.452 23.308 23.308 0 0 1-16.452 6.825zM124.173 3.991a19.309 19.309 0 0 0-19.286 19.286v235.427a19.31 19.31 0 0 0 19.286 19.287h160.942a19.307 19.307 0 0 0 19.287-19.287V23.277A19.308 19.308 0 0 0 285.115 3.99H124.173z"/>
        <rect x="153" y="81" width="38" height="7" rx="3.5"/>
        <rect x="200" y="81" width="55" height="7" rx="3.5"/>
        <rect x="153" y="109" width="38" height="7" rx="3.5"/>
        <rect x="153" y="95" width="75" height="7" rx="3.5"/>
        <rect x="235" y="95" width="20" height="7" rx="3.5"/>
        <rect x="198" y="109" width="20" height="7" rx="3.5"/>
        <rect x="225" y="109" width="30" height="7" rx="3.5"/>
    </g>
    
</symbol><symbol id="icon-arrow" viewBox="0 0 18 19">
    <path d="M9.434 3.367l6.142 6.142-6.142 6.142"/>
    <path d="M15.576 9.51H2.51"/>
</symbol><symbol id="icon-css" viewBox="0 0 66 66">
    <path d="M11.615.99h41.98A11.25 11.25 0 0 1 58 1.884a11.484 11.484 0 0 1 3.736 2.559 11.82 11.82 0 0 1 2.494 3.831c.578 1.433.875 2.969.874 4.52v41.389a12.057 12.057 0 0 1-.874 4.52 11.82 11.82 0 0 1-2.494 3.83A11.485 11.485 0 0 1 58 65.095a11.25 11.25 0 0 1-4.407.895H11.615a11.25 11.25 0 0 1-4.406-.895 11.486 11.486 0 0 1-3.736-2.56 11.818 11.818 0 0 1-2.495-3.83 12.058 12.058 0 0 1-.873-4.52v-41.39C.103 11.245.4 9.709.978 8.276a11.82 11.82 0 0 1 2.495-3.831 11.485 11.485 0 0 1 3.736-2.56A11.25 11.25 0 0 1 11.615.99z"/>
    <path d="M16.016 27.785l.64 7.137h15.971v-7.137h-16.61zm-1.285-14.446l.649 7.137h17.247V13.34H14.731zM32.627 46.32l-.031.009-7.949-2.147-.508-5.692h-7.164l1 11.207 14.62 4.058.032-.009V46.32z"/>
    <path d="M49.192 27.785l1.288-14.446H32.602v7.137H42.66l-.65 7.309h-9.407v7.137h8.789l-.829 9.256-7.96 2.149v7.425l14.632-4.055.107-1.206 1.677-18.79.174-1.916z"/>
</symbol><symbol id="icon-git" viewBox="0 0 66 65">
    <path d="M11.744 0h41.98a11.25 11.25 0 0 1 4.406.896 11.485 11.485 0 0 1 3.736 2.559 11.817 11.817 0 0 1 2.495 3.831c.578 1.433.874 2.969.873 4.52v41.388a12.057 12.057 0 0 1-.873 4.52 11.819 11.819 0 0 1-2.495 3.831 11.484 11.484 0 0 1-3.736 2.56 11.25 11.25 0 0 1-4.407.895H11.745a11.249 11.249 0 0 1-4.406-.896 11.484 11.484 0 0 1-3.736-2.559 11.82 11.82 0 0 1-2.495-3.831 12.058 12.058 0 0 1-.873-4.52V11.806c-.002-1.551.295-3.087.873-4.52a11.82 11.82 0 0 1 2.495-3.831A11.485 11.485 0 0 1 7.338.895 11.25 11.25 0 0 1 11.744 0z"/>
    <path d="M56.194 30.329L34.908 9.044a3.139 3.139 0 0 0-4.439 0l-4.42 4.42 5.607 5.607a3.727 3.727 0 0 1 4.721 4.754l5.404 5.404a3.734 3.734 0 0 1 3.86 6.169 3.735 3.735 0 0 1-6.098-4.063l-5.04-5.04v13.262a3.737 3.737 0 1 1-3.071-.109V26.063a3.735 3.735 0 0 1-2.028-4.9l-5.527-5.527L9.283 30.23a3.14 3.14 0 0 0 0 4.441l21.285 21.285a3.14 3.14 0 0 0 4.44 0l21.186-21.184a3.141 3.141 0 0 0 0-4.441"/>
</symbol><symbol id="icon-hero" viewBox="0 0 565 411">
    <g clip-path="url(#a)">
        <path d="M328.576 72.324c10.572 0 19.142-8.57 19.142-19.142s-8.57-19.142-19.142-19.142-19.142 8.57-19.142 19.142 8.57 19.142 19.142 19.142z"/>
        <path d="M477.067 356.414c28.452-21.672 42.042-58.089 33.534-92.828-.211-.863-.435-1.724-.669-2.583-5.641-20.621-19.595-40.219-39.932-46.808-17.077-5.533-35.716-1.278-53.532-3.478-34.971-4.319-62.084-32.616-81.162-62.242-19.077-29.627-33.739-62.79-59.089-87.266C234.432 20.865 166.27 12.18 114.463 38.44c-51.807 26.261-84.808 84.524-83.4 142.59 1.407 58.066 35.878 113.582 85.939 143.036 18.39 10.82 39.66 18.486 60.829 15.804 18.367-2.328 35.056-12.197 53.337-15.127 28.742-4.607 57.3 8.388 82.16 23.532 24.859 15.143 48.872 33.092 77.121 40.113 27.43 6.816 61.413-12.777 86.618-31.974z"/>
        <path d="M436.187 39.66c-.624-.416-1.254-.81-1.878-1.212a272.625 272.625 0 0 0-57.575-27.91l-4.689 64.68h-29.723V1.097A245.296 245.296 0 0 0 336.68 0v75.218h-35.322A73.317 73.317 0 0 1 228.039 1.9c-1.892.409-3.771.846-5.649 1.312v72.006h-28.77l-4.466-61.675A273.056 273.056 0 0 0 130.41 44.75c-.315.215-.63.437-.939.652a246.31 246.31 0 0 0-4.703 3.391v246.753h84.789l-1.498-20.754-8.244-113.953h166.029l-8.245 113.953-1.498 20.754h83.85V42.154a211.044 211.044 0 0 0-3.764-2.495zM222.39 142.02h-23.938l-4.423-61.153h28.361v61.153zm114.29 0h-40.204v-1.212a4.433 4.433 0 0 0-2.74-4.095 4.44 4.44 0 0 0-1.698-.335H274.56a4.427 4.427 0 0 0-4.431 4.43v1.212h-42.09V80.867H336.68v61.153zm5.642 0V80.867h29.315l-4.424 61.153h-24.891z"/>
        <path d="M0 311.348a207.253 207.253 0 0 0 20.16 20.754l523.76.717a207.28 207.28 0 0 0 20.16-20.754L0 311.348z"/>
        <path d="M355.179 244.891v61.442a2.956 2.956 0 0 0 2.953 2.953h91.051a2.954 2.954 0 0 0 2.953-2.953v-61.442a2.959 2.959 0 0 0-2.953-2.95h-91.051a2.958 2.958 0 0 0-2.953 2.95z"/>
        <path d="M357.315 245.655v59.92a1.582 1.582 0 0 0 1.578 1.578h89.532a1.582 1.582 0 0 0 1.578-1.578v-59.92a1.58 1.58 0 0 0-1.578-1.582h-89.532a1.58 1.58 0 0 0-1.578 1.582z"/>
        <path d="M353.275 318.316a1.764 1.764 0 0 0 1.393.666h97.494a1.79 1.79 0 0 0 1.391-.664 1.798 1.798 0 0 0 .363-1.498l-1.514-7.188a1.796 1.796 0 0 0-1.753-1.424h-94.474a1.796 1.796 0 0 0-1.753 1.424l-1.514 7.188a1.796 1.796 0 0 0 .367 1.496z"/>
        <path d="M447.304 311.304h2.302a.35.35 0 0 0 .35-.35v-1.101a.35.35 0 0 0-.35-.35h-2.302a.35.35 0 0 0-.35.35v1.101c0 .194.156.35.35.35z"/>
        <path d="M441.298 311.304h2.303a.35.35 0 0 0 .35-.35v-1.101a.35.35 0 0 0-.35-.35h-2.303a.35.35 0 0 0-.35.35v1.101c0 .194.157.35.35.35z"/>
        <path d="M435.293 311.304h2.302a.35.35 0 0 0 .35-.35v-1.101a.35.35 0 0 0-.35-.35h-2.302a.35.35 0 0 0-.35.35v1.101c0 .194.156.35.35.35z"/>
        <path d="M429.287 311.304h2.303a.35.35 0 0 0 .35-.35v-1.101a.35.35 0 0 0-.35-.35h-2.303a.35.35 0 0 0-.35.35v1.101c0 .194.157.35.35.35z"/>
        <path d="M423.281 311.304h2.303a.35.35 0 0 0 .35-.35v-1.101a.35.35 0 0 0-.35-.35h-2.303a.35.35 0 0 0-.35.35v1.101c0 .194.157.35.35.35z"/>
        <path d="M417.276 311.304h2.303a.35.35 0 0 0 .35-.35v-1.101a.35.35 0 0 0-.35-.35h-2.303a.35.35 0 0 0-.35.35v1.101c0 .194.157.35.35.35z"/>
        <path d="M411.27 311.304h2.303a.35.35 0 0 0 .35-.35v-1.101a.35.35 0 0 0-.35-.35h-2.303a.35.35 0 0 0-.35.35v1.101c0 .194.157.35.35.35z"/>
        <path d="M405.265 311.304h2.302a.35.35 0 0 0 .35-.35v-1.101a.35.35 0 0 0-.35-.35h-2.302a.35.35 0 0 0-.35.35v1.101c0 .194.156.35.35.35z"/>
        <path d="M399.259 311.304h2.303a.35.35 0 0 0 .35-.35v-1.101a.35.35 0 0 0-.35-.35h-2.303a.35.35 0 0 0-.35.35v1.101c0 .194.157.35.35.35z"/>
        <path d="M393.254 311.304h2.302a.35.35 0 0 0 .35-.35v-1.101a.35.35 0 0 0-.35-.35h-2.302a.35.35 0 0 0-.35.35v1.101c0 .194.156.35.35.35z"/>
        <path d="M387.248 311.304h2.303a.35.35 0 0 0 .35-.35v-1.101a.35.35 0 0 0-.35-.35h-2.303a.35.35 0 0 0-.35.35v1.101c0 .194.157.35.35.35z"/>
        <path d="M381.242 311.304h2.303a.35.35 0 0 0 .35-.35v-1.101a.35.35 0 0 0-.35-.35h-2.303a.35.35 0 0 0-.35.35v1.101c0 .194.157.35.35.35z"/>
        <path d="M375.237 311.304h2.303a.35.35 0 0 0 .35-.35v-1.101a.35.35 0 0 0-.35-.35h-2.303a.35.35 0 0 0-.35.35v1.101c0 .194.157.35.35.35z"/>
        <path d="M369.231 311.304h2.303a.35.35 0 0 0 .35-.35v-1.101a.35.35 0 0 0-.35-.35h-2.303a.35.35 0 0 0-.35.35v1.101c0 .194.157.35.35.35z"/>
        <path d="M363.226 311.304h2.303a.35.35 0 0 0 .35-.35v-1.101a.35.35 0 0 0-.35-.35h-2.303a.35.35 0 0 0-.35.35v1.101c0 .194.157.35.35.35z"/>
        <path d="M357.22 311.304h2.303a.35.35 0 0 0 .35-.35v-1.101a.35.35 0 0 0-.35-.35h-2.303a.35.35 0 0 0-.35.35v1.101c0 .194.157.35.35.35z"/>
        <path d="M447.375 314.307h2.302a.35.35 0 0 0 .35-.35v-1.101a.35.35 0 0 0-.35-.35h-2.302a.35.35 0 0 0-.35.35v1.101c0 .194.156.35.35.35z"/>
        <path d="M441.369 314.307h2.303a.35.35 0 0 0 .35-.35v-1.101a.35.35 0 0 0-.35-.35h-2.303a.35.35 0 0 0-.35.35v1.101c0 .194.157.35.35.35z"/>
        <path d="M435.363 314.307h2.303a.35.35 0 0 0 .35-.35v-1.101a.35.35 0 0 0-.35-.35h-2.303a.35.35 0 0 0-.35.35v1.101c0 .194.157.35.35.35z"/>
        <path d="M429.358 314.307h2.303a.35.35 0 0 0 .35-.35v-1.101a.35.35 0 0 0-.35-.35h-2.303a.35.35 0 0 0-.35.35v1.101c0 .194.157.35.35.35z"/>
        <path d="M423.352 314.307h2.303a.35.35 0 0 0 .35-.35v-1.101a.35.35 0 0 0-.35-.35h-2.303a.35.35 0 0 0-.35.35v1.101c0 .194.157.35.35.35z"/>
        <path d="M417.347 314.307h2.303a.35.35 0 0 0 .35-.35v-1.101a.35.35 0 0 0-.35-.35h-2.303a.35.35 0 0 0-.35.35v1.101c0 .194.156.35.35.35z"/>
        <path d="M411.341 314.307h2.303a.35.35 0 0 0 .35-.35v-1.101a.35.35 0 0 0-.35-.35h-2.303a.35.35 0 0 0-.35.35v1.101c0 .194.157.35.35.35z"/>
        <path d="M405.336 314.307h2.303a.35.35 0 0 0 .35-.35v-1.101a.35.35 0 0 0-.35-.35h-2.303a.35.35 0 0 0-.35.35v1.101c0 .194.156.35.35.35z"/>
        <path d="M399.33 314.307h2.303a.35.35 0 0 0 .35-.35v-1.101a.35.35 0 0 0-.35-.35h-2.303a.35.35 0 0 0-.35.35v1.101c0 .194.157.35.35.35z"/>
        <path d="M393.324 314.307h2.303a.35.35 0 0 0 .35-.35v-1.101a.35.35 0 0 0-.35-.35h-2.303a.349.349 0 0 0-.349.35v1.101c0 .194.156.35.349.35z"/>
        <path d="M387.319 314.307h2.303a.35.35 0 0 0 .35-.35v-1.101a.35.35 0 0 0-.35-.35h-2.303a.35.35 0 0 0-.35.35v1.101c0 .194.157.35.35.35z"/>
        <path d="M381.314 314.307h2.302a.35.35 0 0 0 .35-.35v-1.101a.35.35 0 0 0-.35-.35h-2.302a.35.35 0 0 0-.35.35v1.101c0 .194.156.35.35.35z"/>
        <path d="M375.308 314.307h2.303a.35.35 0 0 0 .35-.35v-1.101a.35.35 0 0 0-.35-.35h-2.303a.35.35 0 0 0-.35.35v1.101c0 .194.157.35.35.35z"/>
        <path d="M369.302 314.307h2.303a.35.35 0 0 0 .35-.35v-1.101a.35.35 0 0 0-.35-.35h-2.303a.35.35 0 0 0-.35.35v1.101c0 .194.157.35.35.35z"/>
        <path d="M363.297 314.307h2.303a.35.35 0 0 0 .35-.35v-1.101a.35.35 0 0 0-.35-.35h-2.303a.35.35 0 0 0-.35.35v1.101c0 .194.157.35.35.35z"/>
        <path d="M357.291 314.307h2.303a.35.35 0 0 0 .35-.35v-1.101a.35.35 0 0 0-.35-.35h-2.303a.35.35 0 0 0-.35.35v1.101c0 .194.157.35.35.35z"/>
        <path d="M397.528 317.911h23.323a.35.35 0 0 0 .35-.35v-1.102a.35.35 0 0 0-.35-.35h-23.323a.35.35 0 0 0-.35.35v1.102c0 .193.157.35.35.35z"/>
        <path d="M372.819 257.182h-2.038a1.12 1.12 0 0 0 0 2.239h2.038a1.119 1.119 0 0 0 0-2.239z"/>
        <path d="M396.135 257.182h-2.038a1.12 1.12 0 0 0 0 2.239h2.038a1.12 1.12 0 1 0 0-2.239z"/>
        <path d="M402.742 257.182h-2.039a1.12 1.12 0 0 0 0 2.239h2.039a1.119 1.119 0 0 0 0-2.239z"/>
        <path d="M389.793 256.996h-12.67a1.12 1.12 0 1 0 0 2.238h12.67a1.119 1.119 0 0 0 0-2.238z"/>
        <path d="M420.881 256.996h-12.67a1.119 1.119 0 0 0 0 2.238h12.67a1.12 1.12 0 1 0 0-2.238z"/>
        <path d="M379.037 262.234h-2.039a1.119 1.119 0 0 0 0 2.239h2.039a1.12 1.12 0 0 0 0-2.239z"/>
        <path d="M402.353 262.234h-2.039a1.119 1.119 0 0 0 0 2.239h2.039a1.12 1.12 0 0 0 0-2.239z"/>
        <path d="M408.959 262.234h-2.038a1.119 1.119 0 0 0 0 2.239h2.038a1.12 1.12 0 0 0 0-2.239z"/>
        <path d="M396.011 262.048H383.34a1.119 1.119 0 0 0 0 2.238h12.671a1.119 1.119 0 0 0 0-2.238z"/>
        <path d="M427.099 262.048h-12.671a1.119 1.119 0 0 0 0 2.238h12.671a1.119 1.119 0 0 0 0-2.238z"/>
        <path d="M385.254 267.286h-2.038a1.119 1.119 0 0 0 0 2.238h2.038a1.12 1.12 0 1 0 0-2.238z"/>
        <path d="M408.571 267.286h-2.039a1.119 1.119 0 0 0 0 2.238h2.039a1.119 1.119 0 0 0 0-2.238z"/>
        <path d="M415.177 267.286h-2.039a1.119 1.119 0 0 0 0 2.238h2.039a1.119 1.119 0 0 0 0-2.238z"/>
        <path d="M402.229 267.099h-12.671a1.12 1.12 0 0 0 0 2.239h12.671a1.119 1.119 0 0 0 0-2.239z"/>
        <path d="M433.317 267.099h-12.671a1.12 1.12 0 0 0 0 2.239h12.671a1.119 1.119 0 0 0 0-2.239z"/>
        <path d="M391.472 272.338h-2.038a1.12 1.12 0 1 0 0 2.238h2.038a1.119 1.119 0 0 0 0-2.238z"/>
        <path d="M414.788 272.338h-2.038a1.12 1.12 0 1 0 0 2.238h2.038a1.119 1.119 0 0 0 0-2.238z"/>
        <path d="M421.394 272.338h-2.038a1.119 1.119 0 0 0 0 2.238h2.038a1.12 1.12 0 1 0 0-2.238z"/>
        <path d="M408.446 272.151h-12.67a1.12 1.12 0 0 0 0 2.239h12.67a1.119 1.119 0 0 0 0-2.239z"/>
        <path d="M396.135 292.426h-2.038a1.119 1.119 0 0 0 0 2.238h2.038a1.12 1.12 0 1 0 0-2.238z"/>
        <path d="M402.742 292.426h-2.039a1.119 1.119 0 0 0 0 2.238h2.039a1.119 1.119 0 0 0 0-2.238z"/>
        <path d="M420.881 292.613h-12.67a1.119 1.119 0 0 0 0 2.238h12.67a1.12 1.12 0 1 0 0-2.238z"/>
        <path d="M372.819 292.426h-2.038a1.12 1.12 0 1 0 0 2.238h2.038a1.119 1.119 0 0 0 0-2.238z"/>
        <path d="M389.793 292.613h-12.67a1.12 1.12 0 1 0 0 2.238h12.67a1.119 1.119 0 0 0 0-2.238z"/>
        <path d="M379.037 287.374h-2.039a1.119 1.119 0 0 0 0 2.239h2.039a1.12 1.12 0 0 0 0-2.239z"/>
        <path d="M402.353 287.374h-2.039a1.119 1.119 0 0 0 0 2.239h2.039a1.12 1.12 0 0 0 0-2.239z"/>
        <path d="M408.959 287.374h-2.038a1.119 1.119 0 0 0 0 2.239h2.038a1.12 1.12 0 0 0 0-2.239z"/>
        <path d="M396.011 287.561H383.34a1.119 1.119 0 0 0 0 2.238h12.671a1.119 1.119 0 0 0 0-2.238z"/>
        <path d="M385.254 282.323h-2.038a1.119 1.119 0 0 0 0 2.238h2.038a1.12 1.12 0 1 0 0-2.238z"/>
        <path d="M408.571 282.323h-2.039a1.119 1.119 0 0 0 0 2.238h2.039a1.119 1.119 0 0 0 0-2.238z"/>
        <path d="M415.177 282.323h-2.039a1.119 1.119 0 0 0 0 2.238h2.039a1.119 1.119 0 0 0 0-2.238z"/>
        <path d="M402.229 282.509h-12.671a1.119 1.119 0 0 0 0 2.238h12.671a1.119 1.119 0 0 0 0-2.238z"/>
        <path d="M391.472 277.271h-2.038a1.12 1.12 0 1 0 0 2.238h2.038a1.119 1.119 0 0 0 0-2.238z"/>
        <path d="M414.788 277.271h-2.038a1.12 1.12 0 1 0 0 2.238h2.038a1.119 1.119 0 0 0 0-2.238z"/>
        <path d="M421.394 277.271h-2.038a1.119 1.119 0 0 0 0 2.238h2.038a1.12 1.12 0 1 0 0-2.238z"/>
        <path d="M408.446 277.457h-12.67a1.12 1.12 0 1 0 0 2.239h12.67a1.12 1.12 0 0 0 0-2.239z"/>
        <path d="M361.981 351.632l-9.571-15.128 30.04-23.947 12.399-13.737a13.736 13.736 0 1 1 14.946 22.094l-19.606 7.223-28.208 23.495z"/>
        <path d="M137.425 241.944v73.526h51.51v-73.526a2.476 2.476 0 0 0-1.742-2.366 2.265 2.265 0 0 0-.739-.115h-46.542a2.485 2.485 0 0 0-2.487 2.481zm20.102 25.264a5.496 5.496 0 0 1 5.498-5.448 5.5 5.5 0 0 1 5.499 5.448v8.531a5.499 5.499 0 0 1-10.997 0v-8.531z"/>
        <path d="M137.267 313.119v7.09a1.393 1.393 0 0 0 1.383 1.391h49.059a1.393 1.393 0 0 0 1.383-1.391v-7.09h-51.825z"/>
        <path d="M56.392 131.167v134.248a6.456 6.456 0 0 0 6.452 6.453h198.943a6.46 6.46 0 0 0 6.452-6.453V131.167a6.458 6.458 0 0 0-6.452-6.445H62.844a6.46 6.46 0 0 0-6.452 6.445z"/>
        <path d="M61.06 132.837v130.922a3.457 3.457 0 0 0 3.448 3.449H260.13a3.455 3.455 0 0 0 3.448-3.449V132.837a3.458 3.458 0 0 0-3.448-3.456H64.508a3.455 3.455 0 0 0-3.449 3.456z"/>
        <path d="M97.364 321.119a2.112 2.112 0 0 0 1.663.796H215.41a2.139 2.139 0 0 0 2.079-1.638c.075-.309.08-.631.015-.943l-1.807-8.581a2.15 2.15 0 0 0-2.093-1.699H100.826a2.158 2.158 0 0 0-1.624.751 2.15 2.15 0 0 0-.47.948l-1.806 8.581a2.14 2.14 0 0 0 .438 1.785z"/>
        <path d="M253.782 147.417H70.738a.732.732 0 0 1-.712-.728.727.727 0 0 1 .712-.728h183.044a.723.723 0 0 1 .712.728.728.728 0 0 1-.712.728z"/>
        <path d="M83.198 142.244c2.357 0 4.267-1.952 4.267-4.361 0-2.408-1.91-4.361-4.267-4.361-2.355 0-4.265 1.953-4.265 4.361 0 2.409 1.91 4.361 4.265 4.361z"/>
        <path d="M97.935 142.244c2.356 0 4.266-1.952 4.266-4.361 0-2.408-1.91-4.361-4.266-4.361s-4.266 1.953-4.266 4.361c0 2.409 1.91 4.361 4.266 4.361z"/>
        <path d="M112.672 142.244c2.356 0 4.266-1.952 4.266-4.361 0-2.408-1.91-4.361-4.266-4.361s-4.266 1.953-4.266 4.361c0 2.409 1.91 4.361 4.266 4.361z"/>
        <path d="M244.908 134.601h-10.467a.79.79 0 0 0-.774.792.793.793 0 0 0 .774.792h10.467a.794.794 0 0 0 .553-1.348.79.79 0 0 0-.553-.236z"/>
        <path d="M244.909 137.576h-10.467a.789.789 0 0 0-.775.792.792.792 0 0 0 .775.792h10.467a.793.793 0 0 0 0-1.584z"/>
        <path d="M244.908 140.551h-10.467a.794.794 0 0 0-.774.792.792.792 0 0 0 .774.792h10.467a.79.79 0 0 0 .781-.792.792.792 0 0 0-.781-.792z"/>
        <path d="M497.246 316.23a4.599 4.599 0 0 0 4.433 3.105l18.992-.489a4.533 4.533 0 0 0 4.288-3.338l2.688-28.739a7.017 7.017 0 0 0 3.038.624 6.927 6.927 0 1 0-.348-13.848 5.845 5.845 0 0 0-1.244.129 4.705 4.705 0 0 0-3.495-1.507l-29.214.754a4.156 4.156 0 0 0-.721.09 4.56 4.56 0 0 0-3.493 5.924l5.076 37.295zm30.952-31.413l1.912-6.848a4.659 4.659 0 0 0 .015-2.419c.093 0 .175-.044.267-.045a4.955 4.955 0 0 1 .232 9.906 4.667 4.667 0 0 1-2.426-.594z"/>
        <path d="M495.663 273.01c.622 3.559 7.62 6.061 16.034 5.626 7.738-.356 14.064-3.073 15.223-6.293a4.317 4.317 0 0 0-1.322-.176l-29.214.754a4.254 4.254 0 0 0-.721.089z"/>
        <path d="M513.239 300.438a.366.366 0 0 0 .109-.048l4.124-2.699a.354.354 0 0 0 .119-.13.35.35 0 0 0 0-.34.354.354 0 0 0-.119-.13l-4.287-2.808a.356.356 0 0 0-.549.233.347.347 0 0 0 .056.269.363.363 0 0 0 .101.098l3.829 2.507-3.667 2.401a.362.362 0 0 0-.132.444.359.359 0 0 0 .416.203z"/>
        <path d="M506.725 300.738a.353.353 0 0 0 .267-.298.36.36 0 0 0-.177-.36l-3.801-2.18 3.674-2.729a.362.362 0 0 0 .134-.375.358.358 0 0 0-.561-.2l-4.114 3.056a.35.35 0 0 0-.111.136.344.344 0 0 0-.033.173.343.343 0 0 0 .053.167.343.343 0 0 0 .126.122l4.277 2.452c.08.046.176.059.266.036z"/>
        <path d="M512.829 302.804a.36.36 0 0 0 .219-.534l-5.847-9.613a.359.359 0 1 0-.613.373l5.847 9.613a.362.362 0 0 0 .394.161z"/>
        <path d="M184.131 186.99H152.45a2.34 2.34 0 0 0-2.34 2.34v3.095a2.34 2.34 0 0 0 2.34 2.34h31.681a2.34 2.34 0 0 0 2.34-2.34v-3.095a2.34 2.34 0 0 0-2.34-2.34z"/>
        <path d="M202.598 202.541h-68.614a2.34 2.34 0 0 0-2.34 2.34v3.095a2.34 2.34 0 0 0 2.34 2.34h68.614a2.34 2.34 0 0 0 2.34-2.34v-3.095a2.34 2.34 0 0 0-2.34-2.34z"/>
        <path d="M202.598 218.091h-68.614a2.34 2.34 0 0 0-2.34 2.341v3.095a2.34 2.34 0 0 0 2.34 2.34h68.614a2.34 2.34 0 0 0 2.34-2.34v-3.095a2.34 2.34 0 0 0-2.34-2.341z"/>
        <path d="M208.414 270.165l.155.491.009.016 4.678 14.222 5.381 16.389 10.125 30.8.098 4.784v.016l.752 38.487-2.085 5.218 2.347 8.554s-1.08-12.93-6.87-5.505c-3.279 4.22-7.115 8.539-10.264 12.587a192.445 192.445 0 0 0 17.068 5.986l.663.197a191.317 191.317 0 0 0 48.284 7.761c.851.024 1.685.041 2.495.057.286.008.564.016.842.016.916.009 1.824.017 2.74.017 1.848 0 3.688-.028 5.52-.082a191.267 191.267 0 0 0 40.213-5.439c-.09-5.438-.335-11.793-.687-18.581-.164-3.328-3.836-6.935-4.057-10.419-.155-2.617 3.141-5.078 2.969-7.736-1.112-16.365-2.502-10.083-3.533-21.672a500.764 500.764 0 0 1-.294-3.263c-.663-7.442-1.121-12.096-1.121-12.096l4.4-27.732 6.911-43.541-.532-.875-.597-.295-36.45-18.041-1.979-5.071a7.875 7.875 0 0 0-7.271-4.98l-24.011-.098a7.84 7.84 0 0 0-6.388 3.246l-6.501 9.005-43.01 27.577z"/>
        <path d="M234.298 325.229l-5.438 11.638-3.713 7.949-6.387 33.441-3.198 3.394-2.74-12.015-28.675 6.367c-.94-5.226-.251.177-.832-5.556.164-.164.335-.327.507-.491.458-.425.842-.826.834-1.21-.327-19.775.654-53.429 8.849-73.817a43.073 43.073 0 0 1 5.038-9.397c.163-.221.319-.442.474-.663 3.779-5.291 6.167-10.5 9.552-14.205v-.008a.354.354 0 0 0 .058-.058.108.108 0 0 0 .032-.024l23.259-12.333.998 28.035.712 20.151.67 18.802z"/>
        <path d="M318.166 328.535l6.793 14.535 2.372 5.062 6.385 33.438 3.187 3.386 2.746-12.012 1.291-.265 23.269-4.819 6.783 21.54a12.891 12.891 0 0 0-2.338-16.134c-.463-.419-.849-.827-.838-1.213.386-23.259-1.037-65.729-13.885-83.209-4.081-5.548-6.529-11.073-10.091-14.933-.011-.011-.011-.022-.022-.022l-8.668-14.193-.53-.872-.595-.297-15.859 70.008z"/>
        <path d="M277.012 223.503c17.642 0 31.944-14.302 31.944-31.944s-14.302-31.944-31.944-31.944c-17.643 0-31.945 14.302-31.945 31.944s14.302 31.944 31.945 31.944z"/>
        <path d="M320.188 169.246a2.705 2.705 0 0 0-1.928-.853l.48-1.333a2.534 2.534 0 0 0-.435-2.514 2.538 2.538 0 0 0-1.086-.754 2.536 2.536 0 0 0-1.318-.102l-1.749.337.165-1.169a2.527 2.527 0 0 0-.149-1.288 2.527 2.527 0 0 0-3.242-1.45 2.707 2.707 0 0 1-2.323-.165 2.75 2.75 0 0 1-1.376-1.871l-.61-2.94-.064-.157c-2.968-4.947-8.675-8.546-15.658-9.865-6.215-1.183-12.589-.581-18.733-.014-2.437.229-5.19.487-7.484 1.892-1.95 1.205-3.599 3.614-3.262 6.044-6.058-1.857-12.553 1.849-15.772 6.524-3.814 5.563-4.438 12.531-4.538 17.98-.273 12.89 2.387 23.436 7.886 31.35.401.574.502 1.771 1.298 2.173l-.165-.266c.889.445 1.792 1.162 1.455 1.929-.968 2.208 5.463 7.09 9.994 8.703 8.266 2.947 19.256 2.696 26.984 1.635l.273-1.828c2.788-.38 4.753-1.104 5.305-2.237a62.865 62.865 0 0 0 2.53-2.266l.008-.007c.014-.014.043-.036.057-.05 3.491-3.348 4.301-5.255 4.667-8.158.351-2.847-.272-5.736-.91-8.338 13.435 2.079-5.291-14.31 7.226-17.478.144-.045.29-.08.437-.108.366-.086.732-.172 1.083-.272a18.964 18.964 0 0 0 4.818-2.058c3.498-2.129 4.652-4.954 6.459-8.137a2.454 2.454 0 0 0-.323-2.889z"/>
        <path d="M389.994 330.809a237.69 237.69 0 0 1-.079 5.183l-.021.925a635.176 635.176 0 0 1-.337 11.062c-.007.258-.015.509-.029.767-.201 5.191-.516 11.234-1.061 20.805-1.011 17.679-2.774 2.43-4.545 8.631a15.04 15.04 0 0 0-.265 1.105 20.078 20.078 0 0 1-1.348 4.538c-.939.559-1.907 1.096-2.861 1.634a199.298 199.298 0 0 1-12.969 6.617c-.251.115-.494.23-.738.337a194.116 194.116 0 0 1-24.913 9.506c-1.663.502-3.319.99-4.997 1.441-1.749.488-3.498.947-5.269 1.377a191.317 191.317 0 0 1-40.211 5.441c-1.828.058-3.671.079-5.521.079-.917 0-1.821-.007-2.738-.014-.28 0-.559-.007-.839-.015-.81-.021-1.649-.035-2.495-.057a191.18 191.18 0 0 1-48.284-7.764l-.666-.194c-1.033-.315-2.058-.623-3.083-.953a191.456 191.456 0 0 1-13.987-5.033 193.656 193.656 0 0 1-10.395-4.545.24.24 0 0 1-.086-.043 100.3 100.3 0 0 1-2.158-1.025c-.093-.05-.194-.101-.294-.151a193.229 193.229 0 0 1-7.936-4.101c-2.201-5.054-5.298-6.022-7.22-10.466a18.565 18.565 0 0 1-1.204-4.116c0-.014-.007-.028-.007-.05.2 2.667-.853-4.731-.007-.028a35.05 35.05 0 0 0-.115-1.255c-2.459-24.009-2.301-51.467-3.37-74.093a470.386 470.386 0 0 0-.301-5.513c.05-.129.108-.265.172-.394a.758.758 0 0 1 .051-.108c.021-.044.045-.087.071-.129l.05-.071a.805.805 0 0 1 .036-.072c.065-.1.136-.208.215-.308.036-.043.065-.079.101-.115a.511.511 0 0 1 .086-.1.443.443 0 0 1 .079-.094c.028-.028.057-.064.093-.1a.22.22 0 0 1 .057-.057c.057-.065.119-.125.186-.179a6.79 6.79 0 0 1 .818-.646c.1-.064.208-.129.308-.2a13.677 13.677 0 0 1 2.273-1.09c.272-.1.545-.194.838-.294.108-.029.208-.065.316-.1.158-.051.315-.101.48-.137a31.05 31.05 0 0 1 2.653-.645c.114-.021.236-.043.358-.072.172-.035.352-.064.531-.093l.745-.129c2.13-.337 4.546-.588 7.212-.753l.753-.043.889-.043c.251-.014.509-.021.767-.028.251-.015.509-.022.775-.029.724-.021 1.469-.043 2.229-.057 2.165-.043 4.445-.029 6.839.021 1.112.029 2.244.058 3.406.108.079 0 .15.007.222.007 1.011.036 2.029.079 3.076.136.731.036 1.469.072 2.208.115.695.043 1.398.086 2.107.136.552.029 1.104.072 1.664.108.473.035.946.071 1.419.1l.645.043c.352.029.703.05 1.061.086l2.38.194 2.416.215a271.437 271.437 0 0 1 2.689.251c.745.078 1.491.15 2.244.229.172.014.351.029.523.05.718.072 1.45.157 2.174.234l.666.071c.567.062 1.127.116 1.698.183.753.086 1.52.165 2.266.265.58.064 1.161.129 1.742.201.91.107 1.835.222 2.76.344.351.043.702.086 1.054.136 2.638.33 5.305.695 8.015 1.075a625.49 625.49 0 0 1 12.481 1.893c4.208.681 8.441 1.4 12.697 2.158 1.075.193 2.15.387 3.233.588l1.462.279c.832.151 1.664.309 2.495.466.832.158 1.663.316 2.495.481l2.975.58a695.265 695.265 0 0 1 19.321 4.108c1.039.237 2.079.481 3.111.717 2.065.48 4.111.968 6.137 1.463.559.129 1.111.265 1.663.401 1.377.344 2.753.688 4.108 1.04l.237.064c.996.244 1.971.495 2.946.753 2.302.602 4.565 1.212 6.789 1.828 1.477.409 2.937.822 4.381 1.24 2.158.624 4.273 1.255 6.33 1.893.509.158 1.018.315 1.52.466 1.505.466 2.989.939 4.43 1.412a277.335 277.335 0 0 1 6.618 2.273c.681.244 1.355.502 2.028.745.968.359 1.922.717 2.854 1.076.287.107.566.222.846.33.179.078.351.143.523.215.337.136.681.265 1.011.401.337.129.667.265.996.409.323.129.653.265.968.401.323.129.638.265.954.409.265.107.523.222.774.337.509.222 1.018.444 1.513.674.243.114.487.222.731.337l.559.258c.079.043.158.079.237.114.179.086.365.18.545.266.415.193.824.401 1.225.595.538.272 1.061.545 1.563.81a84.64 84.64 0 0 1 1.477.81c.079.043.151.086.23.129.107.057.215.122.322.179.366.208.717.423 1.068.631.689.423 1.341.839 1.95 1.255.137.093.266.186.402.272.451.323.882.638 1.283.961 0 .007 0 .007.007.007.137.1.266.208.395.308.107.101.222.187.329.287.373.323.717.631 1.033.946.105.098.206.201.301.309.042.034.08.073.115.114.143.144.272.287.394.43.019.02.036.042.05.065.172.201.33.401.48.602.072.101.151.201.215.301.086.122.172.251.244.373.065.1.122.208.179.308.153.259.282.53.388.81.08.191.145.387.193.588.054.191.095.385.122.581z"/>
        <path opacity=".2" d="M389.994 330.809a244.287 244.287 0 0 1-.079 5.183c-.007.301-.021.61-.029.925a939.334 939.334 0 0 1-.329 11.062c-.008.258-.015.509-.029.767-.201 5.191-.516 11.234-1.061 20.805-1.011 17.679-2.775 2.43-4.545 8.631a501.522 501.522 0 0 0-16.073-9.448 745.95 745.95 0 0 0-3.148-1.771c-11.528-6.431-24.403-13.17-37.845-19.844-.531-.265-1.069-.531-1.599-.789-30.791-15.22-64.4-30.024-91.628-39.903a420.017 420.017 0 0 0-14.991-5.14c-9.937-3.176-18.525-5.399-25.135-6.359-6.882-1.004-11.635-.646-13.557 1.426a511.102 511.102 0 0 0-.222-4.201l-.086-1.312c.044-.118.102-.23.157-.344l.022-.05a.879.879 0 0 1 .05-.108c.021-.044.045-.087.072-.129a.744.744 0 0 1 .086-.143c.065-.1.136-.208.215-.308a2.25 2.25 0 0 1 .187-.215.47.47 0 0 1 .078-.094c.029-.028.058-.064.094-.1a.194.194 0 0 1 .057-.057c.057-.065.119-.125.186-.18.256-.235.529-.451.818-.645.1-.064.208-.129.308-.201a13.713 13.713 0 0 1 2.273-1.089c.272-.101.544-.194.838-.294.108-.029.208-.065.316-.1a5 5 0 0 1 .48-.137 31.05 31.05 0 0 1 2.653-.645c.286-.057.588-.115.889-.165l.745-.129c2.129-.337 4.545-.588 7.212-.753l.753-.043.889-.043c.251-.014.509-.021.767-.028.251-.015.509-.022.774-.029.724-.021 1.47-.043 2.23-.057a183.19 183.19 0 0 1 6.839.028c1.112.022 2.244.058 3.406.108.071 0 .15.007.222.007 1.011.029 2.036.079 3.075.129.732.036 1.47.072 2.208.115.696.043 1.398.086 2.108.136.552.029 1.104.072 1.663.108.474.035.947.071 1.42.1l1.706.129c.789.064 1.577.129 2.38.193l2.416.216a274.898 274.898 0 0 1 2.689.251c.745.078 1.491.15 2.244.229 4.172.423 8.466.918 12.883 1.484 2.638.337 5.309.698 8.015 1.082a681.67 681.67 0 0 1 12.481 1.886c4.208.681 8.44 1.4 12.696 2.158a544.134 544.134 0 0 1 7.191 1.333c.832.158 1.663.316 2.495.481l2.975.58a695.265 695.265 0 0 1 19.321 4.108c1.039.237 2.079.481 3.111.717a561.356 561.356 0 0 1 11.908 2.904v.007c.079.014.158.036.237.057a551.396 551.396 0 0 1 9.735 2.581c1.477.416 2.94.824 4.381 1.24a502.771 502.771 0 0 1 7.85 2.359c1.505.473 2.982.944 4.43 1.412a277.107 277.107 0 0 1 6.617 2.273c.689.244 1.363.494 2.029.738.975.359 1.922.717 2.854 1.083.286.107.566.222.846.33.523.2 1.032.408 1.534.616.337.129.667.265.996.409.323.129.653.265.968.401.323.129.638.265.954.409.265.107.523.222.774.337.509.222 1.018.444 1.513.674.243.114.487.222.731.337l.559.258a81.997 81.997 0 0 1 2.007.975c.538.272 1.061.545 1.563.81a51.39 51.39 0 0 1 1.706.939c.108.057.216.122.323.179.366.208.717.423 1.068.631.689.423 1.341.839 1.95 1.255.602.415 1.162.824 1.685 1.233 0 .007 0 .007.007.007.251.201.495.401.724.595.373.323.717.631 1.033.946.105.098.206.201.301.309.041.034.08.073.114.114a11.489 11.489 0 0 1 .925 1.097c.072.1.151.201.215.301.086.122.172.251.244.373.065.1.122.208.179.308.152.259.282.53.387.81.079.191.144.388.194.588.054.191.095.385.122.581z"/>
    </g>
    
</symbol><symbol id="icon-html" viewBox="0 0 66 66">
    <path d="M11.615.99h41.98A11.25 11.25 0 0 1 58 1.884a11.485 11.485 0 0 1 3.736 2.559 11.82 11.82 0 0 1 2.494 3.831c.578 1.433.875 2.969.874 4.52v41.389a12.057 12.057 0 0 1-.874 4.52 11.82 11.82 0 0 1-2.494 3.83A11.486 11.486 0 0 1 58 65.095a11.251 11.251 0 0 1-4.407.895H11.615a11.25 11.25 0 0 1-4.406-.895 11.486 11.486 0 0 1-3.736-2.56 11.818 11.818 0 0 1-2.495-3.83 12.058 12.058 0 0 1-.873-4.52v-41.39C.103 11.245.4 9.709.978 8.276a11.82 11.82 0 0 1 2.495-3.831 11.485 11.485 0 0 1 3.736-2.56A11.25 11.25 0 0 1 11.615.99z"/>
    <path d="M22.53 20.476h10.096V13.34H14.73l.17 1.915 1.755 19.668h15.971v-7.137h-9.444l-.652-7.309zm1.608 18.014h-7.164l1 11.207 14.62 4.058.032-.009V46.32l-.031.009-7.949-2.147-.508-5.692z"/>
    <path d="M32.602 34.922h8.788l-.829 9.256-7.96 2.149v7.425l14.632-4.055.107-1.206 1.677-18.79.174-1.916h-16.59v7.137zm0-14.463v.017H49.84l.143-1.604.325-3.618.17-1.915H32.603v7.12z"/>
</symbol><symbol id="icon-js" viewBox="0 0 66 66">
    <path d="M11.615.99h41.98A11.25 11.25 0 0 1 58 1.884a11.485 11.485 0 0 1 3.736 2.559 11.82 11.82 0 0 1 2.494 3.831c.578 1.433.875 2.969.874 4.52v41.389a12.057 12.057 0 0 1-.874 4.52 11.821 11.821 0 0 1-2.494 3.83A11.486 11.486 0 0 1 58 65.095a11.251 11.251 0 0 1-4.407.895H11.615a11.25 11.25 0 0 1-4.406-.895 11.486 11.486 0 0 1-3.736-2.56 11.82 11.82 0 0 1-2.495-3.83 12.058 12.058 0 0 1-.873-4.52v-41.39C.103 11.245.4 9.709.978 8.276a11.82 11.82 0 0 1 2.495-3.831 11.485 11.485 0 0 1 3.736-2.56A11.25 11.25 0 0 1 11.615.99z"/>
    <path d="M43.879 51.85c1.309 2.137 3.012 3.708 6.025 3.708 2.53 0 4.148-1.265 4.148-3.013 0-2.094-1.661-2.836-4.447-4.054l-1.527-.655c-4.408-1.878-7.336-4.23-7.336-9.204 0-4.58 3.49-8.068 8.945-8.068 3.884 0 6.676 1.352 8.688 4.89l-4.757 3.055c-1.047-1.878-2.177-2.618-3.93-2.618-1.79 0-2.924 1.135-2.924 2.618 0 1.832 1.135 2.574 3.756 3.709l1.527.654c5.19 2.225 8.12 4.494 8.12 9.595 0 5.5-4.32 8.512-10.122 8.512-5.672 0-9.337-2.703-11.13-6.246l4.964-2.884zm-21.577.528c.96 1.703 1.832 3.142 3.93 3.142 2.008 0 3.274-.785 3.274-3.838v-20.77h6.107v20.852c0 6.325-3.708 9.204-9.12 9.204-4.89 0-7.723-2.531-9.163-5.58l4.972-3.01z"/>
</symbol><symbol id="icon-logo" viewBox="0 0 143 57">
    <path d="M20.74 21.987a6.008 6.008 0 0 1 5.853-.014l10.902 6.047c4.132 2.292 4.123 8.236-.015 10.516l-10.975 6.046a6.008 6.008 0 0 1-5.71.047L9.74 38.776c-4.204-2.226-4.276-8.223-.127-10.55l11.126-6.24z" filter="url(#a)"/>
    <path d="M20.741 12.031a6.008 6.008 0 0 1 5.853-.013l10.902 6.047c4.132 2.292 4.123 8.236-.015 10.516l-10.975 6.046a6.008 6.008 0 0 1-5.71.047L9.742 28.821c-4.204-2.226-4.276-8.223-.127-10.55l11.126-6.24z" filter="url(#b)"/>
    <path d="M131.402 37.761a1.06 1.06 0 0 1-1.06-1.06V21.856c0-.586.475-1.06 1.06-1.06h5.435c1.226 0 2.245.193 3.057.58.817.38 1.427.902 1.83 1.565.409.663.613 1.414.613 2.253 0 .69-.132 1.281-.397 1.773-.265.486-.622.88-1.069 1.184a4.5 4.5 0 0 1-1.426.637.096.096 0 0 0 .017.19 3.695 3.695 0 0 1 1.641.549c.558.331 1.013.8 1.367 1.408.353.607.53 1.342.53 2.204 0 .878-.213 1.667-.638 2.369-.425.696-1.066 1.245-1.922 1.648-.856.403-1.933.605-3.231.605h-5.807zm2.013-3.628c0 .585.475 1.06 1.061 1.06h2.245c1.115 0 1.919-.213 2.41-.638.497-.43.746-.983.746-1.657 0-.502-.124-.955-.373-1.358a2.56 2.56 0 0 0-1.06-.961c-.459-.238-1.005-.357-1.64-.357h-2.328a1.06 1.06 0 0 0-1.061 1.06v2.85zm0-7.183c0 .586.475 1.06 1.061 1.06h1.98c.53 0 1.008-.096 1.433-.29a2.414 2.414 0 0 0 1.002-.836c.249-.364.373-.795.373-1.292 0-.657-.232-1.199-.696-1.624-.458-.425-1.14-.638-2.046-.638h-2.046a1.06 1.06 0 0 0-1.061 1.06v2.56z"/>
    <path d="M115.882 37.038a1.06 1.06 0 0 1-1.005.723h-1.02a1.06 1.06 0 0 1-1-1.413l5.226-14.845a1.06 1.06 0 0 1 1-.708h2.293c.449 0 .85.284 1 .708l5.233 14.845a1.06 1.06 0 0 1-1 1.413h-1.02c-.455 0-.86-.29-1.005-.723l-4.267-12.7a.093.093 0 0 0-.088-.063.092.092 0 0 0-.087.062l-4.26 12.7zm-.134-4.869c0-.585.474-1.06 1.06-1.06h6.826c.586 0 1.06.475 1.06 1.06v.348a1.06 1.06 0 0 1-1.06 1.06h-6.826a1.06 1.06 0 0 1-1.06-1.06v-.348z"/>
    <path d="M100.671 37.761a1.06 1.06 0 0 1-1.06-1.06V21.856c0-.586.474-1.06 1.06-1.06h.952a1.06 1.06 0 0 1 1.061 1.06v12.268c0 .586.474 1.06 1.06 1.06h5.352c.585 0 1.06.475 1.06 1.061v.456a1.06 1.06 0 0 1-1.06 1.06h-8.425z"/>
    <path d="M95.91 25.037c.585 0 1.06.474 1.06 1.06v.199a1.06 1.06 0 0 1-1.06 1.06h-5.195a1.06 1.06 0 0 1-1.06-1.06v-.199c0-.586.475-1.06 1.06-1.06h5.194zm-4.45-1.988c0-.586.476-1.06 1.061-1.06h.878c.586 0 1.06.474 1.06 1.06v10.885c0 .403.061.712.183.928.127.21.293.353.497.43.204.078.43.116.68.116.187 0 .358-.014.513-.041.2-.035.4.091.443.29l.277 1.284c.085.397-.141.79-.538.878a5.624 5.624 0 0 1-1.077.116c-.75.022-1.427-.091-2.03-.34a3.157 3.157 0 0 1-1.432-1.176c-.348-.53-.52-1.193-.514-1.988V23.049z"/>
    <path d="M87.207 25.037c.586 0 1.06.474 1.06 1.06v.199a1.06 1.06 0 0 1-1.06 1.06h-5.401a1.06 1.06 0 0 1-1.06-1.06v-.199c0-.586.474-1.06 1.06-1.06h5.401zm-3.52 12.724a1.06 1.06 0 0 1-1.06-1.06V23.835c0-.855.176-1.568.53-2.137.358-.569.839-.994 1.44-1.276A4.671 4.671 0 0 1 86.603 20c.52 0 .98.041 1.384.124.51.105.794.613.665 1.118l-.244.947a.516.516 0 0 1-.603.363 2.904 2.904 0 0 0-.647-.067c-.557 0-.952.136-1.184.406-.227.265-.34.646-.34 1.143v12.667a1.06 1.06 0 0 1-1.06 1.06h-.887z"/>
    <path d="M73.18 38.01c-1.242 0-2.32-.274-3.23-.82-.912-.547-1.619-1.312-2.121-2.295-.497-.983-.746-2.132-.746-3.447 0-1.314.249-2.465.746-3.454.502-.988 1.21-1.756 2.12-2.303.912-.547 1.989-.82 3.231-.82 1.243 0 2.32.273 3.231.82.911.547 1.615 1.315 2.112 2.303.503.989.754 2.14.754 3.454 0 1.315-.25 2.464-.754 3.447a5.514 5.514 0 0 1-2.112 2.294c-.911.547-1.988.82-3.23.82zm.017-2.403c.674 0 1.237-.185 1.69-.555.453-.376.79-.878 1.01-1.508.227-.63.34-1.33.34-2.104 0-.779-.113-1.483-.34-2.112-.22-.635-.557-1.14-1.01-1.516-.453-.376-1.016-.564-1.69-.564-.69 0-1.265.188-1.723.564-.453.375-.793.88-1.02 1.516-.22.63-.33 1.334-.33 2.112 0 .773.11 1.475.33 2.104.227.63.567 1.133 1.02 1.508.458.37 1.032.555 1.723.555z"/>
    <path d="M62.786 25.46c-.542 0-.966-.431-1.223-.909a2.26 2.26 0 0 0-.707-.782c-.57-.403-1.31-.604-2.22-.604-.641 0-1.19.096-1.649.29-.458.193-.81.455-1.052.787-.243.33-.367.71-.373 1.134 0 .354.08.66.24.92.166.26.39.48.671.663.282.176.594.326.937.447.342.122.687.224 1.035.306l1.59.398c.641.15 1.257.35 1.848.605.596.254 1.13.574 1.599.96.475.387.85.854 1.126 1.4.276.547.414 1.188.414 1.923 0 .994-.254 1.87-.762 2.626-.508.75-1.242 1.339-2.203 1.764-.956.42-2.113.63-3.471.63-1.32 0-2.466-.205-3.438-.613-.967-.409-1.723-1.005-2.27-1.79a4.856 4.856 0 0 1-.746-1.772c-.125-.59.369-1.094.97-1.094h.938c.555 0 .986.445 1.21.953.085.19.191.364.32.522.32.392.738.684 1.251.878.52.193 1.1.29 1.74.29.668 0 1.254-.1 1.756-.299.508-.204.906-.486 1.193-.844.287-.365.434-.79.44-1.276-.006-.442-.136-.806-.39-1.094-.254-.292-.61-.535-1.069-.729a10.294 10.294 0 0 0-1.59-.53l-1.93-.497c-1.398-.359-2.502-.903-3.314-1.632-.806-.734-1.21-1.71-1.21-2.924 0-1 .27-1.875.812-2.626.547-.751 1.29-1.334 2.229-1.748.938-.42 2.002-.63 3.189-.63 1.204 0 2.259.21 3.164.63.912.414 1.627.991 2.146 1.731.316.448.54.937.67 1.467.14.576-.353 1.068-.945 1.068h-.926z"/>
    <path d="M12 19.5L24 13l13.5 7.5L25 27l-13-7.5z" filter="url(#c)"/>
    <path d="M23.405 40.87L38.695 32v4l-14.998 8-.292-3.13z" filter="url(#d)"/>
    
</symbol><symbol id="icon-vue" viewBox="0 0 66 65">
    <path d="M11.744 0h41.98a11.25 11.25 0 0 1 4.406.896 11.485 11.485 0 0 1 3.736 2.559 11.817 11.817 0 0 1 2.495 3.831c.578 1.433.874 2.969.873 4.52v41.388a12.057 12.057 0 0 1-.873 4.52 11.819 11.819 0 0 1-2.495 3.831 11.484 11.484 0 0 1-3.736 2.56 11.25 11.25 0 0 1-4.407.895H11.745a11.249 11.249 0 0 1-4.406-.896 11.484 11.484 0 0 1-3.736-2.559 11.82 11.82 0 0 1-2.495-3.831 12.058 12.058 0 0 1-.873-4.52V11.806c-.002-1.551.295-3.087.873-4.52a11.82 11.82 0 0 1 2.495-3.831A11.485 11.485 0 0 1 7.338.895 11.25 11.25 0 0 1 11.744 0z"/>
    <g clip-path="url(#a)">
        <path d="M38.368 11.375l-5.63 9.752-5.63-9.752H8.364l24.375 42.22 24.375-42.22H38.368z"/>
        <path d="M38.368 11.375l-5.63 9.752-5.63-9.752h-8.993l14.623 25.331 14.624-25.331h-8.994z"/>
    </g>
    
</symbol></svg>